<?xml version="1.0" encoding="utf-8"?>
<!-- Generator: Adobe Illustrator 23.0.3, SVG Export Plug-In . SVG Version: 6.00 Build 0)  -->
<svg version="1.1" id="katman_1" xmlns="http://www.w3.org/2000/svg" xmlns:xlink="http://www.w3.org/1999/xlink" x="0px" y="0px"
	 viewBox="0 0 58 32" style="enable-background:new 0 0 58 32;" xml:space="preserve">
<style type="text/css">
	.st0{clip-path:url(#SVGID_2_);}
	.st1{fill:none;stroke:#000000;stroke-width:1.5;stroke-miterlimit:10;}
</style>
<g>
	<g>
		<defs>
			<rect id="SVGID_1_" width="58" height="32"/>
		</defs>
		<clipPath id="SVGID_2_">
			<use xlink:href="#SVGID_1_"  style="overflow:visible;"/>
		</clipPath>
		<g class="st0">
			<path class="st1" d="M45.8,0l-1.7,7.3c-0.3,1.5-1.7,2.6-3.3,2.6H17.1c-1.6,0-2.9-1.1-3.3-2.6L12.2,0"/>
			<path class="st1" d="M48.5,0L48,2.2h9V0H48.5z M15.6,2.2L15.1,0h8.3v2.2H15.6z"/>
			<path class="st1" d="M1,1.1h11.2 M34.6,1.1h11.2H34.6z"/>
			<path class="st1" d="M44.7,32v-8.9c0-4.8-4-8.7-8.8-8.7h-1.2 M13.3,32v-8.9c0-4.8,4-8.7,8.8-8.7h1.2 M30.8,16.6h-3.7
				c-2.1,0-3.8-1.7-3.8-3.7v-3h11.2v2.9C34.6,14.9,32.9,16.6,30.8,16.6z"/>
		</g>
	</g>
</g>
</svg>
