<svg id="Layer_1" data-name="Layer 1" xmlns="http://www.w3.org/2000/svg" viewBox="0 0 400 400"><defs><style>.cls-1{fill:#282973;}</style></defs><path class="cls-1" d="M198.3,43.1a154.9,154.9,0,0,0-47.9,7.5l-8.1,40.9a122.8,122.8,0,0,1,40.8-12.6h.1L208,43.4C204.8,43.2,201.6,43.1,198.3,43.1Zm125.9,63.2-2.6-3.3-2.4-3-4.4-5.1a158.6,158.6,0,0,0-35.1-29.1h0L242.8,86.3a125.7,125.7,0,0,1,29.3,16.5c1.9,1.5,3.7,2.9,5.5,4.5l2.2,1.9h0l4.9-.3h.1l39.4-2.5ZM198.3,322.1a122.1,122.1,0,0,1-25.1-2.6l-40.8,22.9a156.3,156.3,0,0,0,58.4,14.3L214.4,321A122,122,0,0,1,198.3,322.1ZM89.4,87a158.1,158.1,0,0,0-34.7,49.6l25.7,31.6a119.8,119.8,0,0,1,17.2-37.1ZM76.2,200a17.7,17.7,0,0,1,.1-2.3c0-1.2,0-2.5.1-3.7s.3-5,.6-7.4.9-7.3,1.6-10.8L52,143.1A157.6,157.6,0,0,0,41.4,200v2.4l8.3,4.8,5.3,3,2.8,1.6,5.2,3,15.6,9a120.1,120.1,0,0,1-2.3-19.1C76.3,203.1,76.2,201.6,76.2,200Zm23.2,71.5H72.8l4.2-6.4L86.9,250a124.1,124.1,0,0,1-6.4-18L58,219l-5.2-3L50,214.5l-5.2-3.1-3.1-1.7.3,4.2c.2,2.4.5,4.8.8,7.1s.3,2.4.5,3.6l1.2,6.8a155.3,155.3,0,0,0,17.4,46.1l43,1C103,276.2,101.1,273.9,99.4,271.5Zm11.2,13.3-45-1c2.6,4.1,5.4,8,8.3,11.9a278.2,278.2,0,0,0,43.2-4.6C114.8,289.1,112.7,287,110.6,284.8Zm21.8,17.9h0a334.8,334.8,0,0,1-46.5,6.8,156.9,156.9,0,0,0,39.8,29.6l38.7-21.8A122.2,122.2,0,0,1,132.4,302.7Zm90.3,16.9-24.6,37.3h.2a156.8,156.8,0,0,0,58.3-11.2l4.9-41.3A119.9,119.9,0,0,1,222.7,319.6ZM296.8,272a122.6,122.6,0,0,1-28.6,28h0l-5.1,42.9A157.6,157.6,0,0,0,309,311.2ZM324,221l-6.3,4.5h0a119.3,119.3,0,0,1-8.1,24.5l10,15.1,4.2,6.4H303.2l10.7,34.6a158.2,158.2,0,0,0,33.3-56.4Zm-9.8-59.4h-.1a120,120,0,0,1,6.3,38.5c0,2-.1,3.9-.2,5.9,7.1-5.4,13.8-11,19.9-16.6,4.3-3.9,8.2-7.7,11.7-11.5ZM355.1,195l-5.2,4.9c-6.5,5.9-13.5,11.7-20.9,17.4l20.3,25.3a153.8,153.8,0,0,0,5.9-42.6C355.2,198.3,355.2,196.6,355.1,195Zm-26.7-82.7L286,115h-.2a123.4,123.4,0,0,1,25.3,38.3h0l41.5,17.9A156.8,156.8,0,0,0,328.4,112.3ZM215.1,44,191.2,78.1l7.1-.2A120.4,120.4,0,0,1,235,83.6l38.5-21.3A154.3,154.3,0,0,0,215.1,44ZM94.8,82.1l7.8,42.2a124.7,124.7,0,0,1,32.6-28.8l8.4-42.6A155.8,155.8,0,0,0,94.8,82.1Z"/><path class="cls-1" d="M40.4,235.7c-.5-2.2-1-4.5-1.4-6.8l-.6-3.6c-.4-2.4-.7-4.7-1-7.1-.6-6-1-12.1-1-18.2A161.9,161.9,0,0,1,312.7,85.5c2.9,2.9,5.6,5.8,8.2,8.8s2.9,3.5,4.3,5.3a31.5,31.5,0,0,1,2.4,3c1.4,1.8,2.7,3.6,4,5.5a159.1,159.1,0,0,1,26,63.2l3.4-4.2A165.3,165.3,0,0,0,336.5,108l-3.9-5.5-2.3-3.2L326,94A166,166,0,0,0,32.3,200a173.6,173.6,0,0,0,1.4,21.8c.4,2.4.7,4.8,1.1,7.2s.5,2.4.7,3.6l1.5,6.9a165.4,165.4,0,0,0,25.5,55.9l5.2.2A158.4,158.4,0,0,1,40.4,235.7Z"/><path class="cls-1" d="M363.7,186.2l-3.8,4c.2,3.3.3,6.5.3,9.8A161.9,161.9,0,0,1,83.8,314.5c-1.5-1.6-3-3.1-4.4-4.7L74,310A166,166,0,0,0,364.3,200Q364.3,193,363.7,186.2Z"/><path class="cls-1" d="M222.9,270.7l-1.8.7C162.7,294,109.3,306.1,70.6,306.1H65.2c-14.4-.5-26.5-2.7-35.7-6.8s-15.7-10.3-18.7-18c-5-13.3,2.1-30.8,20.1-50.6.4,2.1.8,4.2,1.3,6.4-14.7,16.8-20.6,31.7-16.5,42.3,2.4,6.4,7.7,11.5,15.9,15.1s17.8,5.6,29.5,6.3l5.4.2c35.7.9,86-9.6,141.8-30.2Z"/><path class="cls-1" d="M387.3,132.1v.7c0,12.9-7.4,28.1-20.5,43.8l-3.6,4.3c-15.8,17.6-38.4,35.9-65.6,52.7l-.5-.8-2.3-3.4c29.3-18.1,52.4-37.6,67.4-55.5l3.5-4.3c10.4-13.4,16.1-25.8,16.4-36.1a8.1,8.1,0,0,1-4-14.6,29.6,29.6,0,0,0-12.9-10.8c-6.1-2.8-14.8-4.9-27.1-5.1l-3.9-5.4c13.6,0,24.6,1.9,33.2,5.8s12.5,8,15.9,14.1a8,8,0,0,1,4,14.6Z"/><path class="cls-1" d="M293,233.6l-3.1-4.7-92-139L81.1,267.6H315.5ZM114,249.1l84-124,84.5,124Z"/><path class="cls-1" d="M234.1,217.1a37.5,37.5,0,0,0-12.4-10,51.5,51.5,0,0,0-12.2-4.1c-2.1-.4-4.3-.6-6.5-.8a49.3,49.3,0,0,0-9.4-.1l-3.8.5h-.2c-.3.3-.6.2-.9.2h-.9l-2,.4a48.2,48.2,0,0,0-15.8,6.4l-2.4,1.7-1.8,1.6-1.6,1.4a16.3,16.3,0,0,0-1.4,1.8,7.7,7.7,0,0,0,.3,9.3,45.3,45.3,0,0,0,70.8-.3,6.7,6.7,0,0,0,.2-8Zm-26-12.3a.6.6,0,0,1,.6-.5c.1,0,.2,0,.2.2a1.2,1.2,0,0,1-.2.8.6.6,0,0,0-.1.8c.1.1.2.2.1.4s-.6-.2-.7-.6A1.4,1.4,0,0,1,208.1,204.8Zm-6.5-.6h.3c.2.1.4.2.1.4a.7.7,0,0,0-.3.6c.1.3-.2.2-.3.2s-.3-.3-.5-.3S201.1,204.3,201.6,204.2Zm-3.5,7,.8-.4h.2a.2.2,0,0,1,0,.3l-.5.7c-.1.3-.2.5.2.5s.1.1.1.2a.2.2,0,0,1-.2.2c-.4,0-.8.1-1-.4s-.4-.1-.6-.1-.7-.3-.4-.8a4.1,4.1,0,0,0,.5-.9c.1-.3.2-.2.4-.1A5.6,5.6,0,0,1,198.1,211.2Zm-1.4-2.3h0Zm.8-.1c-.1.2-.2.1-.3.1s-.2-.1-.2-.2-.5-.3-.6.1-.4,0-.5.2-.5-.1-.5-.4,0-.4.4-.5.5-.1.8.1.5.2.8.3S197.6,208.7,197.5,208.8Zm-10-4.6a2.8,2.8,0,0,1,1.8-.2c.1.5.5.4.8.4a1,1,0,0,1-.5.4c-.1,0-.5.4-.5-.3s-.4-.2-.7-.2l-1,.2A.4.4,0,0,1,187.5,204.2Zm-6.1,1.9c.2-.3,1.1-.3,1.4-.2s.2.2.1.3l-1,.5a.9.9,0,0,1-.5-.3Q181.1,206.3,181.4,206.1Zm-7.2,11.8c.2-.1,0-.4.3-.5s-.2.2,0,.4a3.4,3.4,0,0,1,.4,1.8A4.7,4.7,0,0,1,174.2,217.9Zm17.3,9.8c-.3,0-.5.1-.5.5a.5.5,0,0,1-.2.4.4.4,0,0,0,0,.6,2,2,0,0,1-.1,1.5h-1.1c-.6,0-.7.1-.6.6s-.1.3,0,.4a1,1,0,0,1-.7,1.2c-.5.3-.5.5-.2,1s.2.7-.2.7-1,.4-1.1.9a2.8,2.8,0,0,0,.6,2.3l.8.4a1.4,1.4,0,0,1-1.1,0,3.8,3.8,0,0,1-1.1-1.1,7.2,7.2,0,0,1-1.2-2.5,14.3,14.3,0,0,0-.8-2.2,9,9,0,0,1-.3-1.6.8.8,0,0,0-.4-.8c-.4-.2-.6-.6-1-.9V229c-.1-1-.9-1.6-1.2-2.4s-.3-.8.1-1.2a4.3,4.3,0,0,0,.7-2.5c.1-.3,0-.4-.3-.2l-.6.3a.5.5,0,0,1-.7.1c-.4-.3-.9-.5-1.1-1s-.5-.2-.8-.2a2.5,2.5,0,0,1-2.2-1.6c-.3-1-.9-1.9-1.3-2.9h-.2c-.6-.5-1-.9-.9-1.7s0-.4,0-.6v-.3h-.1c-.2-.2-.1-.3,0-.5l.3-.4a2,2,0,0,0,.4-.8c.1-.3,0-.4-.2-.5h0c0-.4.3-.8,0-1.1a.2.2,0,0,0-.1-.3c-.5,0-.2-.3-.2-.6s.4-.2.1-.4h-.7a2,2,0,0,1-1.1.2,22.8,22.8,0,0,1,3-1.7,16,16,0,0,1,4.8-1.6c.5-.1,1-.3,1.4.3s.2.2.4.1h.3c.7-.3.7-.3,1.1.3s.2.3.4.2.7-.1.8-.7.7-.2,1.1.1-.2.5-.6.4v.2c.2.3,0,.5,0,.8l.4,1h.3l.2-.2V209h.2c.4.2.4.2.5-.2s.1-.4.2-.6.1-.4.1-.6a.1.1,0,0,1,0-.2c0-.5,0-.5-.5-.7l-.7-.5c-.1-.1,0-.5,0-.7s.1-.2.2-.1h.4c.3,0,.6.1.6-.4l.3-.3c.3-.2.4-.1.4.2s.1.7.6.8.5.3,0,.5,0,.2,0,.3.5.4.5.9l-.2.3c-.2.2-.6.3-.3.7s-.1.5-.4.6-.6-.1-.6.3-.1.7.3.9h.4c0-.2-.1-.5.2-.5s.5.2.5.4.1.6.2,1-.5-.4-.8-.2l.3.3c.2,0,.2.1.2.2s.1.5.3.7.2.2,0,.3a.3.3,0,0,1-.4,0H188c-.2-.2-.4-.5-.7-.4a3.1,3.1,0,0,0-1.2.5c-.1.1-.1.2.1.3s.3.6.5.8-1.2.3-1.7-.3-.5,0-.4.3-.4.6-.3,1-.4.4-.5.6-.5.1-.7.2h0c.1.2.3.4.2.6s-.4.2-.6.3l-.8.5s-.2.3-.1.5.1.5,0,.6a1.1,1.1,0,0,0-.1,1.4v.4a.3.3,0,0,1-.3-.3c.1-.4-.3-.6-.3-1s-.4-.5-.6-.8-.6-.2-.9-.2a4.2,4.2,0,0,0-1.7.5,1,1,0,0,0-.6,1.3v.4c.1.8.3.9,1.1.8h.4c-.1-.3-.1-.6.3-.7s.3-.4.6-.6a1.8,1.8,0,0,1-.4,1c-.1.2-.1.3.1.4s.6.6.5,1.1a.6.6,0,0,0,.5.8.6.6,0,0,0,.8-.2c.2-.2.3-.3.6,0s.8.2,1.1-.1.4-.6.8-.4.2,0,.2-.1-.1-.2,0-.3.2-.6-.1-.8a1.1,1.1,0,0,0-1.2.2.9.9,0,0,1-.9.3c.3-.3.8-.3,1-.8a2,2,0,0,1,1.3.1,1.2,1.2,0,0,1,.1,1c-.2.6-.2.6.4.9s.6.7,1.1.9l.3.2a3.7,3.7,0,0,1,2.4,1.7,2,2,0,0,0,2,.8c.7,0,1.1.1,1.4.7S192,227.5,191.5,227.7Zm-9.3-7.2c-.2-.2-.4-.1-.3-.4S182.2,220.2,182.2,220.5Zm-.4-.4c-.1.1-.1,0-.1-.1Zm12.5-12.4c-.4-.2-.7.2-1,0H193c-.5.2-1.2.4-1.4,1.1s-.8.6-1,1h-.2c-.1-.2-.5-.4-.3-.7a.9.9,0,0,0,.1-1,1,1,0,0,1,.4-.7,1.7,1.7,0,0,0,.5-1.2c-.1-.5-.1-.5-.7-.5a.6.6,0,0,0-.1-.7c-.2-.3.2-.8.6-1l.9-.2a43.6,43.6,0,0,1,5.1-.3c.2,0,.4-.1.5.1s0,.5-.3.6a.7.7,0,0,0-.4.5,1,1,0,0,1-1,1.1h-.1v.2c.1,0,.3,0,.2.2l-.2.2-.5.2a1.3,1.3,0,0,0-.6.7C194.5,207.6,194.4,207.8,194.3,207.7Zm13.6,22.6h-.3c-.6.4-.7.7-.5,1.3s.1.5-.1.8-1.5,1.3-2.2,2.1a.6.6,0,0,1-.8,0,1.7,1.7,0,0,1-1.1-1.6,1.9,1.9,0,0,0-.6-1.6,1.5,1.5,0,0,1-.3-2,2.7,2.7,0,0,0-.6-3.2,3.3,3.3,0,0,1-.7-1.3.9.9,0,0,0-1.3-.7l-1.4.4a2,2,0,0,1-2.1-.9.8.8,0,0,0-.7-.5.5.5,0,0,1-.4-.6c0-.4-.3-1,.1-1.4v-.4a3.3,3.3,0,0,1,1.2-2.4l.6-.7c.2-.2.3-.4.6-.3a.8.8,0,0,0,.9-.3c.3-.3.7-.4.8-.9s.2-.1.3-.1.7.1.8-.3.1-.1.1,0,1.2.5,1.5,1.2.3.3.5.4l2,.5a.6.6,0,0,0,.8-.2c.3-.5.8-.4,1.2-.4s.1.3.2.3.5,1,.7,1.6a7.6,7.6,0,0,0,1.5,2.8l.3.3a1.1,1.1,0,0,0,1.3.7.5.5,0,0,1,.5.7,5,5,0,0,1-1.3,2.2c-1.2.9-1.2.9-.8,2.4h0C209,229.8,209,229.7,207.9,230.3Zm3,.4-.9,1.6-.5-.4a.6.6,0,0,1-.1-.7l.8-1.4c.2,0,.2.2.3.3s.3-.6.6-.8A1.7,1.7,0,0,1,210.9,230.7Zm10.8-3.6c-.2-.5-.3-1-.9-1.3s-.3-.7-.3-1.1h.1c.6,0,.5-.8,1.1-.8s.4,0,.5.2a.4.4,0,0,1,0,.6c0,.1,0,.2-.1.1s-.8.2-1.1.1a.6.6,0,0,0,.2.6,1.8,1.8,0,0,1,.5.7c.2.3.4.5.7.5s.4.1.4.3a.5.5,0,0,1-.3.5C222.2,227.6,221.9,227.4,221.7,227.1Zm.8-2.2c.3,0,.6.2.6.4s-.1.3-.4.3-.4,0-.4-.3S222.3,224.9,222.5,224.9Zm.6,5.2c-.2.1-.4-.1-.6-.3s.6-.2.8-.4A.6.6,0,0,1,223.1,230.1Zm-.3-.9c0-.4.3-.6.5-.9S223.1,229,222.8,229.2Zm1.5-2.3-.3.3c-.2.2-.4.2-.4-.1s-.1-.8-.2-1.2,1-.8,1.3-1.5.2-.3-.1-.2-.4-.1-.5-.2.1-.3.2-.3a.4.4,0,0,1,.5.2.8.8,0,0,1,.2.5A7.2,7.2,0,0,1,224.3,226.9Zm4.2-11h-.2c-.1-.4-.6-.4-.7-.7a.7.7,0,0,0-.8-.3c-.3.1-.5.1-.6-.2s-.4-.5-.6-.7h-.5c-.1.2,0,.3.1.4a.9.9,0,0,1,.3.9.8.8,0,0,0,.4.8.8.8,0,0,1,.4,1,.4.4,0,0,0,0,.5c.2.3.1.5-.1.6s-.5.6-.9.6-.4.3-.4.6a1.8,1.8,0,0,1-.4.9c-.2.1-.4.3-.6.2a.5.5,0,0,0-.8.2,1,1,0,0,0,.1.9,1.2,1.2,0,0,1,.2,1.4c-.4-.7-1-.5-1.5-.5s-.4,0-.6-.2a16.2,16.2,0,0,1-1-1.8c-.1-.2-.2-.2-.3-.2l-1-.3c-.2.2-.1.4-.2.5s-.4.8-.8.8a1,1,0,0,0-.8,1c0,.6-.1,1.1.2,1.5s.2.2,0,.3-.1,0-.2-.1a1.2,1.2,0,0,1-.8-.9,3.6,3.6,0,0,0-.4-.9c-.2-.1-.2-.2-.2-.4s-.2-.7-.4-1.1-1-.9-1.6-1.3h-.2c-.5.1-1.1-.1-1.6,0h-.3c-.2-.3-.8-.3-1-.8s-.2-.3-.5-.2-.2.3-.1.5.3.4.3.6.2.5.6.3.3,0,.4.1.3.3.7.1.3.3.5.4a.2.2,0,0,1,0,.4c-.1.1-.2.3-.4.3a1.1,1.1,0,0,0-.7.8.5.5,0,0,1-.5.4l-.7.2a.8.8,0,0,1-.9-.2,6.4,6.4,0,0,1-1.9-3.5c-.1-.2-.1-.4-.2-.5s-.2-.7.1-1V217c-.2-.3-.6-.3-.8-.6h-.3c-.2.3-.5.2-.7,0s-.4-.3-.7-.4l.3-.6-.2-.2c-.1-.1-.2,0-.2.1s-.6.5-.6,1,0-.5-.2-.7-.4.3-.6.5-.3-.6-.3-.9.3.3.6.3,0-.6-.6-.6a.9.9,0,0,0-1.2,0l-.2.2c-.2.1-.4.3-.6.2s.1-.4,0-.6-.7,0-1.1-.2-1.4.6-1.4,1.1a2.2,2.2,0,0,1-1,1.3.4.4,0,0,1-.6-.3l-.2-.5A1.5,1.5,0,0,1,198,214c.1-.1.4,0,.4-.2s-.2-.2-.3-.4-.2-.1-.2-.3.6-.4.8.2.2-.2.3-.4.4-.7.9-.7l.3-.2a3.9,3.9,0,0,1,1.1-.6c.3-.3.5.3.8,0s.2-.4.5-.5l1.4-.2.3-.3c-.2-.1-.5-.2-.6-.5s-.1-.5.1-.8,0-.3-.2-.4l-.2-.3c0-.3-.3-.2-.4-.3s-.4,0-.4.2a3.5,3.5,0,0,1-.6,1.7c-.1.1-.2.3-.3.2a.7.7,0,0,0-1,.1l-.3-.4c-.4-.3-.4-.5,0-.9l.2-.3a.2.2,0,0,1,.2-.2c.9-.1,1.1-.8,1.5-1.4s.3-.4.7-.3h1.2a.4.4,0,0,1,.6.2h.4c.2,0,.3.2.3.4s.6.9,1.1.6h.4a.6.6,0,0,0,.6-.6c0-.1-.1-.3.2-.4s.2,0,.3.2.4-.3.6,0a1.1,1.1,0,0,1,1.3.2h.4c0-.3-.3-.4-.4-.6s-.2-.1-.2-.3l.4-.2a1.1,1.1,0,0,0,.9-.3c.5-.3.3-.6.2-1a1.3,1.3,0,0,1,.9.1,35.8,35.8,0,0,1,13.1,5.7l1.5,1.2c.1.1.3.2.1.4s-.2.3-.4.2-.5,0-.3.3a4.2,4.2,0,0,0,.4,1,.9.9,0,0,0,.9.6c.3-.1.5.1.8,0s.5.2.5.4S228.8,215.7,228.5,215.9Z"/><path class="cls-1" d="M210.5,213.5c0-.2,0-.4-.3-.4s-.5,0-.5.2-.3.3-.6.1-.1.2,0,.2.2.8.5,1.1.2.4-.1.6a.4.4,0,0,0-.1.3c.4.2.5.8.9,1a.6.6,0,0,0,.9-.5.6.6,0,0,0-.1-.7A6,6,0,0,1,210.5,213.5Z"/><path class="cls-1" d="M207.3,213.8h-.1a1.3,1.3,0,0,0-1.7.3c-.1.1-.1.2,0,.4s.5.4.7.6.4.2.6,0a.3.3,0,0,1,.3-.3c.2,0,.2.4.4.4s-.1-.4.2-.5h.7C207.9,214.4,208.1,213.5,207.3,213.8Z"/><path class="cls-1" d="M182.3,211.7c.1-.2,0-.3,0-.4a.4.4,0,0,1,.3-.6c.3-.1.2.3.4.4s0,.2.1.3a5,5,0,0,1-.2,1.2h.6a.6.6,0,0,0,.8-.6c0-.4.2-.7.1-1.1s0-.3.2-.2.3-.3.3-.5-.1-.6-.4-.8-.1-.2-.1-.4,0-.7-.7-.6h-.1l-.5-.6c-.1.1-.1.3-.2.4a3.2,3.2,0,0,1-.3.9.2.2,0,0,0-.2.2c-.7.1-.7.7-.9,1.1s0,.3.1.4Z"/><path class="cls-1" d="M220.3,206.5l-.6-.3a.9.9,0,0,1-.6-.9c.1-7.6,0-15.1.1-22.7,0-.3-.1-.4-.4-.6s-2.9-1.2-4.4-1.6l-2.3-1-3.7-1.4a4.1,4.1,0,0,0-2.4-.4c-.2,0-.5-.2-.7,0s0,.4,0,.6c0,7.8,0,15.6-.1,23.4v.5c0,.1,0,.2-.1.2h-.9c-.2-.1-.1-.4-.1-.6V180.3c0-5.6,0-11.3-.1-16.9a1,1,0,0,0-.5-.9l-4.5-2.3a.9.9,0,0,1-.6-.9v-7.2a.3.3,0,0,0-.3-.3h-.4c-.5,0-.5,0-.5.5,0,2.3-.1,4.6,0,6.8a1.1,1.1,0,0,1-.7,1.2l-4.2,2.2a.7.7,0,0,0-.5.9v38.1c0,.8,0,.8-.7.9s-.5,0-.4-.3V181.9c0-.1,0-.4-.2-.4s-1.2-.8-1.9-1.1a5.1,5.1,0,0,1-1.5-.7h-.8a2.6,2.6,0,0,0-.9.5,16.5,16.5,0,0,0-2.6,1.4l-5.4,2.9a1,1,0,0,0-.6,1.1v19.8c0,.3.1.8-.2.9l-.8.3c1.3.1.6.4.5,1.1a51.4,51.4,0,0,1,5.5-2l2.8-.8,1.9-.3a50.2,50.2,0,0,1,5.4-.8l5.2-.3a58.8,58.8,0,0,1,10.3.8,13,13,0,0,1,3.3.7l2.3.4a42,42,0,0,1,5,1.7l2.3,1C220.4,207.3,219.6,206.8,220.3,206.5Zm-34.4-3.8c0,.4-.2.6-.5.6s-.5,0-.4-.3,0-.4-.2-.3l-.7.2c-.3.1-.4.2-.4.5s-.2.4-.4.4-.4.4-.5-.1h-.1c-.3.2-.8.1-1,.5l-.3.2-2.9.9a1.3,1.3,0,0,1-.1-.6V187.5a.7.7,0,0,1,.5-.8l3.7-2.1,1.6-1a10.4,10.4,0,0,0,1.6-.6,1.3,1.3,0,0,1,.1.6Zm8-1.3v.4c0,.4-.2.3-.4.3a.3.3,0,0,1-.3-.3v-.3c0-12.4,0-24.8.1-37.2,0-.5,0-.5.6-.7s0,.4,0,.7Zm1.9-37.7v37.7c0,.2.1.5-.3.6s-.3-.4-.3-.6V163.6c0-.5,0-.8.6-.9Zm2.6,38.2h-1V181.9h0V162.4c0-.2-.2-.5.3-.6s.7,0,.7.7c.1,8.2.1,16.4.1,24.6v14.2C198.5,201.5,198.6,201.8,198.4,201.9Zm2.4-.2c0,.2,0,.3-.3.3s-.4-.1-.4-.3V163.6a1.7,1.7,0,0,1,.1-.7c.6.2.6.2.6.8v38Zm1.9-.3v.4c0,.2,0,.3-.3.3s-.3,0-.3-.3v-.4c0-12.3,0-24.7-.1-37.1a1.3,1.3,0,0,1,.1-.6c.5.1.6.3.6.8Zm14.6,3.3c0,.5,0,.5-.5.3a52.7,52.7,0,0,0-6.8-1.9c-.3,0-.5-.1-.4-.5V181c1.4.4,2.7,1,4,1.5l3.4,1.4a.5.5,0,0,1,.4.6C217.4,191.2,217.4,198,217.3,204.7Z"/><path class="cls-1" d="M207.1,174.4a14.2,14.2,0,0,0,.5,2.2c0,.2.1.3.3.4l6.8,2.6,3.8,1.5a6.8,6.8,0,0,1-.3-1.9c0-.4-.3-.6-.7-.7l-4.1-1.6c-1.1-.4-1.1-.4-1.1-1.6.1-3.3,0-6.7,0-10,0-.8,0-.8-.8-.8s-.6,0-.6.5v10.8Z"/><path class="cls-1" d="M216.2,187.3l-1.4-.5v1.6c0,.2.1.4.3.4l1.4.6v-1.8A.3.3,0,0,0,216.2,187.3Z"/><path class="cls-1" d="M216.2,192.6l-1.4-.5v1.6c0,.1,0,.3.2.3l1.5.5V193C216.5,192.8,216.4,192.7,216.2,192.6Z"/><path class="cls-1" d="M212,193h.1c0-.6.2-1.3-.1-1.8s-.9-.5-1.4-.6h-.1v.7C210.5,192.7,210.5,192.8,212,193Z"/><path class="cls-1" d="M211.9,188.4l-1.4-.5v1.9c.5.3,1,.3,1.5.6h.1v-1.6C212.1,188.5,212.1,188.4,211.9,188.4Z"/><path class="cls-1" d="M210.7,187.2l1.4.5V186a.4.4,0,0,0-.1-.3l-1.5-.5v1.7C210.5,187,210.6,187.2,210.7,187.2Z"/><path class="cls-1" d="M211.9,196.4l-1.4-.5v1.7c0,.2.1.3.3.4l1.3.4v-1.7C212.1,196.5,212,196.4,211.9,196.4Z"/><path class="cls-1" d="M210.7,195.3l1.4.4c0-.6.2-1.3-.1-1.8s-.9-.4-1.3-.6h-.2v1.6C210.5,195.1,210.5,195.2,210.7,195.3Z"/><path class="cls-1" d="M215,191.5l1.4.4c.1-.5,0-1.1.1-1.6a.3.3,0,0,0-.3-.3,4.6,4.6,0,0,0-1.4-.5v1.7C214.8,191.4,214.9,191.5,215,191.5Z"/><path class="cls-1" d="M215,199.3l1.4.5c.2-1.9.1-2-1.4-2.4h-.2V199C214.8,199.2,214.8,199.3,215,199.3Z"/><path class="cls-1" d="M216.5,195.6c0-.1-.1-.3-.2-.3l-1.5-.5v.6c0,1.4,0,1.4,1.3,1.7s.4.1.4-.2Z"/><path class="cls-1" d="M216.3,186.6h.1a7.5,7.5,0,0,0,0-1.5.4.4,0,0,0-.1-.3,8.4,8.4,0,0,0-1.4-.6C214.7,186.1,214.7,186.2,216.3,186.6Z"/><path class="cls-1" d="M210.8,184.5l1.3.5a8.6,8.6,0,0,0,0-1.6c0-.2,0-.3-.2-.3a5.2,5.2,0,0,0-1.3-.6v1.7C210.6,184.3,210.6,184.4,210.8,184.5Z"/><path class="cls-1" d="M215.1,202l1.3.4v-1.6c0-.1,0-.3-.2-.3l-1.4-.4a8.6,8.6,0,0,0,0,1.6C214.8,201.9,214.9,201.9,215.1,202Z"/><path class="cls-1" d="M214,189.1a5,5,0,0,0-1.3-.4v.6c0,1.4,0,1.4,1.4,1.8h.1v-1.7C214.2,189.3,214.2,189.2,214,189.1Z"/><path class="cls-1" d="M212.9,186h-.2v1.6c0,.2,0,.4.2.4a2.8,2.8,0,0,0,1.3.4C214.4,186.5,214.3,186.5,212.9,186Z"/><path class="cls-1" d="M213,196a4.2,4.2,0,0,0,1.2.3v-.6c0-1.4,0-1.4-1.5-1.7v1.7A.3.3,0,0,0,213,196Z"/><path class="cls-1" d="M212.9,196.7h-.1c-.1,2.4-.4,1.7,1.3,2.3h.1C214.5,197.3,214.4,197.1,212.9,196.7Z"/><path class="cls-1" d="M210.6,198.7h-.1v1.5a.5.5,0,0,0,.3.5l1.2.2C212,198.7,212.4,199.2,210.6,198.7Z"/><path class="cls-1" d="M214.1,185.8h.1c.2-1.8.2-1.9-1.3-2.4h-.1C212.6,185.3,212.6,185.3,214.1,185.8Z"/><path class="cls-1" d="M214.1,193.7h.1v-1.5c0-.2,0-.3-.2-.4l-1.2-.4C212.6,193.3,212.6,193.3,214.1,193.7Z"/><path class="cls-1" d="M212.9,199.4h-.2v1.5c0,.3.1.4.3.4l1.2.4C214.4,199.9,214.3,199.8,212.9,199.4Z"/><path class="cls-1" d="M181.6,194.5l.7-.3c.4-.1.5-.4.5-.8a6.5,6.5,0,0,1,0-1.4l-.9.4-.3.3A10.8,10.8,0,0,0,181.6,194.5Z"/><path class="cls-1" d="M184.9,192.6v-1.7l-1,.5c-.1,0-.2.1-.2.3v1.8l1-.6C184.8,192.9,184.9,192.8,184.9,192.6Z"/><path class="cls-1" d="M182.2,197.1a.8.8,0,0,0,.6-.9,5.3,5.3,0,0,1-.1-1.3l-.9.5c-.1,0-.2.1-.2.3v1.7C181.9,197.4,182,197.2,182.2,197.1Z"/><path class="cls-1" d="M182.8,197.9l-1,.4c-.1.1-.2.1-.2.3a9.7,9.7,0,0,0,0,1.7l.8-.3a.5.5,0,0,0,.4-.6Z"/><path class="cls-1" d="M184.7,189.9a.5.5,0,0,0,.2-.4v-1.6a9.3,9.3,0,0,0-1,.5c-.2.1-.2.2-.2.4v1.6Z"/><path class="cls-1" d="M181.8,201.2a.5.5,0,0,0-.2.4v1.5c1.2-.2,1.2-.2,1.2-1.3v-1Z"/><path class="cls-1" d="M179.8,190.6a.5.5,0,0,0-.3.5v1.5a1.9,1.9,0,0,0,.9-.5.3.3,0,0,0,.3-.3v-1.7Z"/><path class="cls-1" d="M179.5,189.6a3.1,3.1,0,0,0,1-.5.5.5,0,0,0,.2-.4v-1.6l-1,.5c-.1,0-.2.1-.2.3Z"/><path class="cls-1" d="M180.7,196l-1.1.5c-.1.1-.1.2-.1.4v1.5l.9-.4c.2-.1.3-.2.3-.4Z"/><path class="cls-1" d="M182.8,189l-.9.5a.3.3,0,0,0-.3.3v1.7l.9-.4c.2-.1.3-.2.3-.4Z"/><path class="cls-1" d="M181.7,188.5l.9-.4a.5.5,0,0,0,.2-.4v-1.8l-1,.6a.2.2,0,0,0-.2.2C181.7,187.3,181.6,187.9,181.7,188.5Z"/><path class="cls-1" d="M183.7,187.4l1-.5c.2-.1.2-.2.2-.3v-1.7a1.3,1.3,0,0,0-.9.4c-.2.1-.3.2-.3.4Z"/><path class="cls-1" d="M180.6,201.8l-.9.4-.2.3v1.6l.7-.2c.3-.1.5-.3.4-.6Z"/><path class="cls-1" d="M184.9,196.9l-.8.4c-.3.1-.4.2-.4.5a8.5,8.5,0,0,1,0,1.6l1-.5c.1,0,.2-.1.2-.3A9.7,9.7,0,0,0,184.9,196.9Z"/><path class="cls-1" d="M179.5,201.4l.9-.4c.1-.1.2-.1.2-.3V199a1.2,1.2,0,0,0-1.1,1.6Z"/><path class="cls-1" d="M184.9,199.8l-1,.4a.4.4,0,0,0-.2.4v1.6l1-.4c.1,0,.2-.1.2-.3Z"/><path class="cls-1" d="M183.9,194.4v2l.8-.5c.2-.1.3-.1.3-.3V194C184.5,194,184.2,194.3,183.9,194.4Z"/><path class="cls-1" d="M179.5,195.6l.9-.5c.1,0,.2-.1.2-.3a8.6,8.6,0,0,0,0-1.6,1.2,1.2,0,0,0-1.1,1.6Z"/></svg>