<svg id="Layer_1" data-name="Layer 1" xmlns="http://www.w3.org/2000/svg" viewBox="0 0 400 400"><defs><style>.cls-1{fill:#fff;}</style></defs><path class="cls-1" d="M198.5,20.9A141.9,141.9,0,0,0,155,27.6l-7.3,37.2a108.7,108.7,0,0,1,37-11.5h0l22.6-32.2Zm114,57.3-2.3-3c-.7-.9-1.4-1.9-2.2-2.8s-2.6-3.1-4-4.6a141.5,141.5,0,0,0-31.8-26.3h.1L238.8,60.1A107.7,107.7,0,0,1,265.3,75c1.7,1.3,3.4,2.6,5,4l2,1.8h0l4.5-.3h0l35.8-2.3Zm-114,195.5a106.9,106.9,0,0,1-22.8-2.4l-37,20.8a140.1,140.1,0,0,0,53,13L213,272.7A99,99,0,0,1,198.5,273.7ZM99.8,60.7a142.3,142.3,0,0,0-31.5,45l23.3,28.6a109.2,109.2,0,0,1,15.6-33.7Zm-12,102.4V161c.1-1.1.1-2.2.1-3.4s.3-4.5.6-6.7.9-6.6,1.5-9.8L65.9,111.5a142.6,142.6,0,0,0-9.7,51.6c0,.7.1,1.4.1,2.1l7.5,4.4,4.8,2.7,2.5,1.5,4.7,2.7,14.1,8.1a109,109,0,0,1-2-17.3C87.8,165.9,87.8,164.5,87.8,163.1Zm21,64.7H84.7l3.8-5.7,9-13.7a117,117,0,0,1-5.8-16.3L71.3,180.3l-4.8-2.7-2.4-1.4-4.8-2.8-2.8-1.6.3,3.9c.2,2.1.4,4.3.7,6.4s.3,2.2.5,3.3.7,4.1,1.1,6.1a140.4,140.4,0,0,0,15.7,41.8l39,.9C112.1,232.2,110.4,230,108.8,227.8ZM119,240l-40.8-1c2.4,3.7,4.8,7.3,7.5,10.8a247.7,247.7,0,0,0,39.2-4.2C122.8,243.8,120.9,241.9,119,240Zm19.8,16.2h-.1a309.6,309.6,0,0,1-42.1,6.1,142,142,0,0,0,36,26.8l35.2-19.7A110.5,110.5,0,0,1,138.8,256.2Zm81.8,15.3-22.3,33.8h.2a140.6,140.6,0,0,0,52.8-10.2l4.4-37.4A110.4,110.4,0,0,1,220.6,271.5Zm67.2-43.2a112,112,0,0,1-26,25.4h0l-4.6,38.9a143.1,143.1,0,0,0,41.6-28.7Zm24.6-46.2-5.7,4.1h-.1a110.8,110.8,0,0,1-7.2,22.2l9,13.7,3.8,5.7H293.5l9.7,31.5a142.3,142.3,0,0,0,30.2-51.2Zm-8.9-53.9h0a111.9,111.9,0,0,1,5.6,34.9c0,1.8,0,3.5-.1,5.3,6.4-4.9,12.5-9.9,18-15,3.8-3.5,7.4-7,10.6-10.4Zm37.1,30.3-4.8,4.5a231.5,231.5,0,0,1-18.9,15.7l18.5,23a144.5,144.5,0,0,0,5.3-38.6C340.7,161.6,340.6,160,340.6,158.5ZM316.4,83.6,277.9,86h-.1a111.4,111.4,0,0,1,22.9,34.8h0l37.6,16.3A140.6,140.6,0,0,0,316.4,83.6ZM213.7,21.7,192,52.6l6.5-.2a108.4,108.4,0,0,1,33.3,5.2l34.9-19.3A141.1,141.1,0,0,0,213.7,21.7ZM104.6,56.2l7.1,38.2a111.5,111.5,0,0,1,29.6-26l7.6-38.7A143.1,143.1,0,0,0,104.6,56.2Z"/><path class="cls-1" d="M55.3,195.5c-.4-2.1-.9-4.1-1.2-6.2l-.6-3.3c-.3-2.1-.6-4.3-.8-6.4a152,152,0,0,1-.9-16.5A146.7,146.7,0,0,1,302.2,59.3c2.6,2.6,5,5.3,7.4,8l3.9,4.7,2.2,2.8,3.5,4.9A144.6,144.6,0,0,1,342.9,137l3-3.7a150.4,150.4,0,0,0-22.2-53.6c-1.1-1.7-2.3-3.4-3.5-5l-2.1-2.9L314.2,67A150.4,150.4,0,0,0,48,163.1a159,159,0,0,0,1.3,19.7c.3,2.2.6,4.4,1,6.5l.6,3.3c.4,2.1.9,4.2,1.4,6.2a148.5,148.5,0,0,0,23.1,50.8h4.7A143.8,143.8,0,0,1,55.3,195.5Z"/><path class="cls-1" d="M348.4,150.5l-3.5,3.7c.2,3,.3,5.9.3,8.9A146.7,146.7,0,0,1,94.7,266.8l-4-4.2H85.8a150.4,150.4,0,0,0,263.1-99.6C348.9,158.8,348.7,154.7,348.4,150.5Z"/><path class="cls-1" d="M220.7,227.2l-1.5.6c-53,20.5-101.4,31.4-136.4,31.4h-5c-13-.4-24-2.4-32.3-6.1s-14.3-9.4-17-16.4c-4.5-12,1.9-27.9,18.2-45.8l1.2,5.8c-13.3,15.3-18.6,28.7-15,38.4,2.2,5.8,7.1,10.4,14.5,13.7s16.1,5,26.8,5.7l4.8.2c32.4.8,77.9-8.8,128.5-27.4Z"/><path class="cls-1" d="M369.8,101.5v.6c0,11.8-6.7,25.5-18.6,39.8l-3.3,3.8c-14.3,16-34.8,32.6-59.5,47.8l-.4-.7-2.1-3.1c26.6-16.4,47.5-34,61.1-50.3l3.2-3.9c9.4-12.1,14.6-23.3,14.9-32.7a7.3,7.3,0,0,1-6.8-7.2,7.5,7.5,0,0,1,3.1-6,26.6,26.6,0,0,0-11.7-9.8c-5.5-2.5-13.4-4.4-24.6-4.7l-3.5-4.8c12.3,0,22.4,1.7,30.1,5.3a30,30,0,0,1,14.4,12.7,7.3,7.3,0,0,1,6.8,7.3A7.2,7.2,0,0,1,369.8,101.5Z"/><path class="cls-1" d="M284.3,193.5l-2.8-4.2L198.1,63.2,92.2,224.3H304.7Zm-162.2,14L198.2,95.2l76.6,112.3Z"/><path class="cls-1" d="M230.9,178.6a32.9,32.9,0,0,0-11.2-9.1,46.7,46.7,0,0,0-11.1-3.7,55.9,55.9,0,0,0-5.9-.8,48.3,48.3,0,0,0-8.5,0c-1.2.1-2.3.4-3.4.4h-.3c-.2.2-.5.1-.7.1h-.9l-1.8.4a39.6,39.6,0,0,0-14.3,5.8l-2.1,1.5-1.7,1.5-1.5,1.3a8.2,8.2,0,0,0-1.2,1.6,6.9,6.9,0,0,0,.3,8.4,41,41,0,0,0,64.1-.3,6,6,0,0,0,.2-7.2Zm-23.5-11.2c.1-.2.2-.4.4-.4s.3-.1.3.2a1.1,1.1,0,0,1-.2.7.5.5,0,0,0-.1.7c.1.1.1.2.1.4s-.6-.2-.6-.5A1.4,1.4,0,0,1,207.4,167.4Zm-6-.5h.4c.1.1.2.2,0,.4s-.3.2-.2.5-.2.2-.4.2-.2-.3-.4-.3S201,167,201.4,166.9Zm-3.1,6.3.7-.3h.2c.1,0,.1.2,0,.2a4.3,4.3,0,0,1-.4.7c-.2.2-.2.4.1.4v.2h-.2c-.3,0-.7.1-.9-.2s-.3-.1-.5-.2-.6-.2-.4-.7a2,2,0,0,0,.4-.8c.1-.3.2-.2.4-.1Zm-1.3-2h0Zm.7-.1h-.3l-.2-.2c-.2-.3-.4-.3-.5.1s-.3.1-.4.2a.3.3,0,0,1-.5-.3c0-.2,0-.4.4-.4s.5-.2.7,0,.5.2.7.3S197.8,170.9,197.7,171.1Zm-9-4.2a2.2,2.2,0,0,1,1.6-.2c.1.4.5.3.7.4s-.2.2-.4.3-.5.4-.4-.2-.4-.2-.7-.2h-.9C188.6,167,188.6,166.9,188.7,166.9Zm-5.6,1.7a2,2,0,0,1,1.3-.2c.2.1.2.2.1.3l-.9.4-.5-.2A.2.2,0,0,1,183.1,168.6Zm-6.5,10.7c.2-.1,0-.4.3-.4s-.2.2-.1.3a4.3,4.3,0,0,1,.5,1.6C176.8,180.3,176.8,179.7,176.6,179.3Zm15.7,8.8c-.2.1-.4.2-.4.5l-.3.4a.5.5,0,0,0,.1.6c.2.1.1,1.1-.1,1.3h-1c-.5,0-.6,0-.6.6v.3a.9.9,0,0,1-.6,1.1c-.5.3-.5.4-.2.9s.2.7-.2.6-.9.4-.9.9a2.4,2.4,0,0,0,.5,2c.2.2.4.2.7.3a.9.9,0,0,1-1,0,2.8,2.8,0,0,1-1-.9,8.2,8.2,0,0,1-1.1-2.3,15.9,15.9,0,0,0-.7-2,7.7,7.7,0,0,1-.2-1.5c-.1-.3-.1-.5-.4-.6s-.6-.6-.9-.8v-.2c-.1-.9-.8-1.5-1.2-2.2a1.4,1.4,0,0,1,.1-1.1,3.9,3.9,0,0,0,.7-2.3c.1-.2,0-.3-.2-.2s-.4.1-.6.3-.4.3-.6.1a1.9,1.9,0,0,1-1.1-.9c-.1-.3-.4-.2-.6-.2a2.1,2.1,0,0,1-2-1.4c-.3-.9-.9-1.7-1.2-2.6s-.1-.2-.2-.2a1.6,1.6,0,0,1-.8-1.5v-.8h-.1c-.2-.1-.1-.3,0-.5l.2-.3a2,2,0,0,0,.4-.8c.1-.2,0-.3-.1-.4h-.1c.1-.3.3-.7,0-1s.1-.2,0-.2-.3-.3-.3-.6.4-.1.1-.3a.5.5,0,0,0-.6-.1,2.9,2.9,0,0,1-1,.3,12.8,12.8,0,0,1,2.7-1.6,13.5,13.5,0,0,1,4.4-1.5c.4,0,.9-.2,1.3.3s.2.2.3.1h.3c.6-.2.6-.2,1,.3s.1.2.3.1.7-.1.7-.6.7-.2,1.1.1-.3.4-.6.4h-.1c.2.3,0,.5,0,.8a2,2,0,0,0,.4.8.2.2,0,0,0,.2.2c.2,0,.2-.1.2-.3v-.2a.1.1,0,0,1,.2,0c.4.2.4.2.5-.2s.1-.3.2-.5,0-.4.1-.5v-.2c.1-.5.1-.5-.4-.7l-.6-.4a.8.8,0,0,1,0-.7h.5a.4.4,0,0,0,.6-.3c0-.1.1-.2.2-.3s.4-.1.4.2.1.7.5.8.5.2,0,.4,0,.2.1.2.4.4.4.8a.5.5,0,0,1-.2.4c-.2.1-.6.2-.2.6s-.2.5-.5.5-.5-.1-.5.3-.1.6.3.8h.3c0-.2,0-.5.2-.5s.5.2.5.4.1.6.2.9-.4-.4-.7-.2.1.2.3.3.1,0,.1.2.1.4.2.6.3.2.1.3h-.5c-.2-.2-.3-.5-.6-.4a2.2,2.2,0,0,0-1.1.5.4.4,0,0,0,.1.3c.2.1.3.5.5.7s-1.1.3-1.6-.3a.3.3,0,0,0-.4.2c.1.4-.3.6-.2,1s-.4.3-.5.6-.4,0-.6.1h0c0,.2.2.4.2.6s-.4.1-.6.2-.4.4-.7.5-.2.3-.1.5a.4.4,0,0,1,0,.5c-.4.4-.3.8-.1,1.3v.3c-.2,0-.3-.1-.3-.2s-.2-.6-.2-1-.4-.4-.6-.7-.5-.2-.8-.2a4.3,4.3,0,0,0-1.6.5.9.9,0,0,0-.5,1.1.8.8,0,0,1,.1.4c.2.7.3.9,1,.8h.4c-.1-.3-.1-.5.2-.6s.4-.3.6-.6a1.8,1.8,0,0,1-.4,1c-.1.1-.1.2.1.4a1.1,1.1,0,0,1,.5.9.7.7,0,0,0,.4.8.6.6,0,0,0,.7-.2c.2-.2.3-.3.6,0s.7.2,1-.1.3-.6.8-.4h.1c0-.1-.1-.1,0-.2a.8.8,0,0,0-.1-.8.8.8,0,0,0-1,.2c-.3.2-.5.4-.9.2s.7-.2.9-.6,1-.1,1.2,0a1.2,1.2,0,0,1,.1,1c-.2.5-.2.5.3.7s.6.7,1,.9h.3a3.8,3.8,0,0,1,2.2,1.6,1.8,1.8,0,0,0,1.8.7,1.5,1.5,0,0,1,1.3.6C192.8,187.7,192.7,188,192.3,188.1Zm-8.4-6.4c-.2-.2-.4-.1-.3-.4S183.8,181.4,183.9,181.7Zm-.4-.4c-.1,0-.1,0,0-.1Zm11.3-11.2c-.3-.2-.6.1-.9-.1h-.2c-.5.3-1.2.4-1.3,1s-.7.6-.9,1h-.2c-.1-.2-.4-.3-.3-.5a.9.9,0,0,0,.1-1,.7.7,0,0,1,.4-.6,1.8,1.8,0,0,0,.4-1.1c0-.5-.1-.5-.6-.4a.6.6,0,0,0-.1-.7c-.1-.2.2-.7.5-.9l.9-.2,4.6-.3c.1,0,.4-.1.4.2s0,.4-.2.5-.4.2-.4.4a1.2,1.2,0,0,1-.9,1.1h0c.1,0,.3,0,.2.2l-.2.2h-.5a1.8,1.8,0,0,0-.5.7C195,170,194.9,170.2,194.8,170.1Zm12.3,20.4h-.2c-.5.4-.6.7-.4,1.2a.6.6,0,0,1-.2.7,18.4,18.4,0,0,1-2,1.9.6.6,0,0,1-.7.1,1.8,1.8,0,0,1-1-1.5,1.7,1.7,0,0,0-.5-1.5,1.4,1.4,0,0,1-.3-1.8,2.3,2.3,0,0,0-.6-2.9,3.9,3.9,0,0,1-.6-1.1c-.2-.7-.5-.8-1.2-.7l-1.2.3a1.8,1.8,0,0,1-1.9-.7c-.1-.2-.3-.5-.6-.5s-.4-.2-.4-.5-.3-.9.1-1.3v-.4a3.7,3.7,0,0,1,1-2.2,1.7,1.7,0,0,0,.6-.6c.2-.2.3-.3.6-.2a1.1,1.1,0,0,0,.8-.3c.2-.3.6-.4.7-.8s.2-.1.3-.1.6,0,.7-.3h.1c.5.3,1.1.4,1.3,1.1a.5.5,0,0,0,.5.3l1.8.5c.3.1.5.1.7-.2s.7-.4,1.2-.3,0,.2.1.3.5.8.7,1.3a6.4,6.4,0,0,0,1.3,2.6l.2.3a1.5,1.5,0,0,0,1.2.7c.4-.1.6.2.5.5a4.1,4.1,0,0,1-1.2,2c-1.1.9-1.1.9-.7,2.2h0C208.1,190.1,208.1,190,207.1,190.5Zm2.8.4a7.1,7.1,0,0,0-.8,1.5l-.5-.4a.6.6,0,0,1-.1-.7l.8-1.2c.1,0,.1.2.2.2s.3-.4.6-.6A1.7,1.7,0,0,1,209.9,190.9Zm9.8-3.3c-.2-.4-.3-.9-.8-1.2s-.4-.5-.3-.9h.1c.5,0,.4-.8.9-.8s.4,0,.5.2a.5.5,0,0,1,.1.6H220c-.4-.2-.7.2-1,.1a.5.5,0,0,0,.3.5l.4.6a.6.6,0,0,0,.6.5c.2,0,.3.1.4.3s-.1.3-.3.4S219.9,187.9,219.7,187.6Zm.7-1.9c.3,0,.5.1.5.3a.3.3,0,0,1-.3.3c-.2,0-.4-.1-.4-.3S220.2,185.7,220.4,185.7Zm.5,4.7c-.2.1-.3-.1-.5-.3s.5-.2.8-.4A.9.9,0,0,1,220.9,190.4Zm-.2-.8a1,1,0,0,1,.4-.8C221.4,189.3,221,189.4,220.7,189.6Zm1.3-2.2c-.1.1-.1.3-.3.4s-.3.1-.3-.2-.1-.7-.2-1,.9-.8,1.2-1.4.1-.3-.1-.2-.4-.1-.5-.2.1-.2.2-.3l.5.2c.1.2.2.3.1.5A5.5,5.5,0,0,1,222,187.4Zm3.9-9.9h-.3c0-.4-.5-.4-.6-.6s-.4-.4-.7-.3-.5,0-.5-.2-.4-.5-.6-.7-.3-.1-.4.1,0,.2.1.3a1,1,0,0,1,.2.9.9.9,0,0,0,.3.7c.3.2.6.4.4.8a.4.4,0,0,0,.1.5c.1.3.1.5-.2.6s-.4.5-.8.5-.3.3-.4.5a1.6,1.6,0,0,1-.3.9c-.2.1-.3.2-.5.1a.6.6,0,0,0-.7.2.5.5,0,0,0,.1.8c.3.4.2.8.1,1.3s-.9-.5-1.4-.4a.6.6,0,0,1-.5-.2,5.6,5.6,0,0,1-.9-1.7h-.2l-1-.3c-.2.2-.1.3-.1.5a1,1,0,0,1-.8.7.9.9,0,0,0-.7.9,2.2,2.2,0,0,0,.2,1.4c.1,0,.1.1,0,.2h-.2a1.4,1.4,0,0,1-.8-.9,1.1,1.1,0,0,0-.3-.8l-.2-.3c.1-.5-.1-.7-.3-1.1s-1-.8-1.5-1.1h-.2c-.5.1-1-.2-1.5,0h-.2c-.2-.3-.7-.3-.9-.7s-.2-.3-.4-.2-.2.3-.1.5l.3.4c.1.2.1.5.5.3h.3c.2.2.3.3.6.1s.4.2.5.4.2.2,0,.3l-.3.3a1,1,0,0,0-.7.8.5.5,0,0,1-.5.3l-.6.2c-.3.2-.6,0-.8-.2a5.9,5.9,0,0,1-1.7-3.2l-.2-.4c-.3-.4-.2-.6.1-.9s0-.2.1-.2-.6-.3-.8-.6h-.2a.3.3,0,0,1-.6,0,.9.9,0,0,0-.6-.3,1.4,1.4,0,0,1,.2-.6l-.2-.2h-.2c-.1.4-.5.5-.5.9s0-.4-.1-.6a1,1,0,0,0-.6.5c-.4-.2-.3-.5-.3-.9s.3.3.5.3,0-.6-.5-.5a.8.8,0,0,0-1.1,0h-.2c-.2.1-.3.3-.5.3s.1-.4,0-.6-.7,0-1-.2-1.3.6-1.3,1a1.9,1.9,0,0,1-.9,1.2.4.4,0,0,1-.6-.3.6.6,0,0,0-.1-.4,1.4,1.4,0,0,1,.9-1.9c.2-.1.4,0,.4-.2s-.1-.2-.2-.3l-.2-.3c.2.1.5-.4.8.1s.1-.2.2-.3a.8.8,0,0,1,.8-.7l.2-.2,1-.5c.3-.2.6.3.8,0s.1-.3.4-.4l1.3-.3.3-.2a.8.8,0,0,1-.5-.5.9.9,0,0,1,0-.7c.1-.2.1-.3-.2-.4a.3.3,0,0,1-.1-.2c0-.3-.3-.2-.4-.3s-.3,0-.3.2a2.5,2.5,0,0,1-.6,1.5c-.1.1-.1.3-.3.2a.8.8,0,0,0-.9.1c-.1-.1-.1-.3-.2-.4s-.4-.4,0-.8V171c.1-.1.1-.3.3-.3s.9-.7,1.3-1.2.3-.3.6-.2h1.1c.2,0,.5-.1.6.2h.3a.3.3,0,0,1,.3.3.7.7,0,0,0,1,.6h.4a.5.5,0,0,0,.5-.5c0-.1-.1-.3.1-.4s.3,0,.4.1.3-.2.5,0,.8,0,1.2.3h.4l-.5-.5v-.2c.1-.2.2-.2.3-.2l.9-.3c.4-.3.2-.6.2-.9a1.1,1.1,0,0,1,.8.1,34.1,34.1,0,0,1,11.9,5.1l1.3,1.1c.1.1.2.2.1.4s-.2.2-.4.1-.4,0-.3.3a3.6,3.6,0,0,1,.4.9.8.8,0,0,0,.8.6h.8a.4.4,0,0,1,.4.4A.7.7,0,0,1,225.9,177.5Z"/><path class="cls-1" d="M209.5,175.3c0-.2,0-.4-.2-.4s-.5,0-.5.2-.3.3-.6.1v.2c.3.3.2.7.5,1a.3.3,0,0,1-.1.5c0,.1-.1.2-.1.4s.4.6.8.8a.6.6,0,0,0,.9-.4,1.7,1.7,0,0,0-.1-.7A3.5,3.5,0,0,1,209.5,175.3Z"/><path class="cls-1" d="M206.6,175.6h-.1a1.1,1.1,0,0,0-1.5.3.2.2,0,0,0,0,.3c.1.3.5.4.7.6s.3.1.4-.1.1-.2.3-.2.2.3.4.3-.1-.4.2-.4h.6C207.2,176.1,207.3,175.3,206.6,175.6Z"/><path class="cls-1" d="M183.9,173.6a.2.2,0,0,0,0-.3c0-.2.1-.5.3-.5s.2.2.4.3,0,.2,0,.3a2.1,2.1,0,0,1-.1,1.1h.5a.6.6,0,0,0,.8-.5c0-.4.2-.7.1-1.1s0-.2.1-.1.3-.3.3-.5,0-.5-.3-.7a.4.4,0,0,1-.1-.3c0-.7,0-.7-.7-.6h-.1l-.4-.5c-.1.2-.1.3-.2.4s-.1.6-.3.8l-.2.2c-.6.1-.6.6-.8,1a.4.4,0,0,0,.1.3Z"/><path class="cls-1" d="M218.4,169l-.6-.3c-.4-.1-.5-.4-.5-.8.1-6.9.1-13.7.1-20.6,0-.3-.1-.4-.4-.5s-2.6-1.1-3.9-1.5-1.4-.7-2.1-.9l-3.4-1.3a4.1,4.1,0,0,0-2.2-.4c-.2,0-.4-.1-.6.1s0,.4,0,.6v21.8h-.9c-.1,0,0-.3,0-.5-.1-6.5-.1-12.9-.1-19.4V129.9a.9.9,0,0,0-.5-.8c-1.4-.7-2.8-1.3-4.1-2.1a.7.7,0,0,1-.5-.8v-6.5a.3.3,0,0,0-.3-.3h-.4c-.5,0-.5,0-.5.5,0,2,0,4.1.1,6.1a1,1,0,0,1-.7,1.1l-3.8,2a.7.7,0,0,0-.5.8,14.8,14.8,0,0,1,.1,2.1v32.4c0,.7,0,.7-.7.8s-.4,0-.3-.3v-15c0-1.1-.1-2.1-.1-3.2s.1-.4-.1-.4a9.5,9.5,0,0,1-1.7-1,3.5,3.5,0,0,1-1.4-.6h-.8c-.3.1-.4.4-.7.5a14.1,14.1,0,0,0-2.4,1.3c-1.6.9-3.2,1.8-4.9,2.6a1,1,0,0,0-.5,1v17.9c0,.3,0,.8-.2.9l-.7.3c1.1.1.5.3.4,1a42.4,42.4,0,0,1,5-1.8l2.6-.8,1.7-.3,4.9-.7a37,37,0,0,1,4.7-.2,47.9,47.9,0,0,1,9.3.6l3,.7,2.1.4a35.3,35.3,0,0,1,4.6,1.5l2,.9C218.5,169.7,217.8,169.2,218.4,169Zm-31.2-3.4c0,.3-.1.5-.5.5s-.3,0-.3-.3,0-.3-.2-.3l-.6.2c-.3.1-.4.2-.4.4s-.1.4-.3.4-.4.4-.5-.1h-.1c-.3.2-.7.1-.9.5l-.3.2-2.6.8a1.1,1.1,0,0,1-.1-.5V151.8a.9.9,0,0,1,.5-.8l3.3-1.8,1.5-.9,1.4-.6c.2.1.1.3.1.5Zm7.3-1.2v.3c0,.3-.3.3-.4.3s-.2-.1-.2-.3v-34c0-.5,0-.5.6-.6v34.3Zm1.7-34.2v34.2c0,.2.1.4-.3.4s-.3-.3-.3-.5V130.1c0-.4.1-.7.6-.8Zm2.3,34.6h-.7c-.1,0-.2,0-.2-.1v-18h.1V129c0-.2-.2-.5.2-.6s.7,0,.7.7v35.2C198.6,164.4,198.7,164.7,198.5,164.8Zm2.2-.2c.1.2,0,.3-.2.3s-.4-.1-.4-.3V130.1a1.7,1.7,0,0,1,.1-.7c.5.2.5.2.5.8v34.4Zm1.7-.2v.3c0,.2,0,.3-.2.3s-.3,0-.3-.3v-34c0-.2-.1-.3,0-.5a.7.7,0,0,1,.6.7C202.4,142,202.4,153.2,202.4,164.4Zm13.3,2.9c0,.5,0,.5-.4.3a47.7,47.7,0,0,0-6.2-1.7c-.3,0-.4-.1-.4-.4V145.8c1.3.4,2.4,1,3.6,1.4l3.1,1.3c.3.1.4.2.4.5C215.7,155.1,215.7,161.2,215.7,167.3Z"/><path class="cls-1" d="M206.4,139.9c.2.7.3,1.4.5,2s.1.2.2.3l6.2,2.4,3.4,1.3a9.9,9.9,0,0,1-.2-1.7c0-.4-.3-.5-.6-.6l-3.7-1.4c-1-.4-1-.4-1-1.5,0-3-.1-6,0-9.1,0-.7,0-.7-.8-.7s-.5,0-.5.5v9.7Z"/><path class="cls-1" d="M214.7,151.5l-1.3-.4v1.5c0,.2.1.3.3.4l1.2.4v-1.5C214.9,151.7,214.9,151.6,214.7,151.5Z"/><path class="cls-1" d="M214.7,156.3l-1.3-.4v1.5l.2.3,1.4.4v-1.4C215,156.5,214.9,156.4,214.7,156.3Z"/><path class="cls-1" d="M210.9,156.7h.1c0-.5.2-1.2-.1-1.6s-.8-.4-1.3-.6h-.1v.7C209.5,156.5,209.6,156.5,210.9,156.7Z"/><path class="cls-1" d="M210.8,152.5l-1.3-.4v1.7a7.8,7.8,0,0,0,1.4.5h.1v-1.5C211,152.7,211,152.6,210.8,152.5Z"/><path class="cls-1" d="M209.7,151.5l1.3.4v-1.5c0-.1,0-.2-.2-.3a2.8,2.8,0,0,0-1.3-.4v1.5C209.5,151.3,209.6,151.4,209.7,151.5Z"/><path class="cls-1" d="M210.8,159.8l-1.3-.4v1.5c0,.2.1.3.3.4l1.2.3v-1.5C211,159.9,210.9,159.8,210.8,159.8Z"/><path class="cls-1" d="M209.7,158.8l1.3.4a4.7,4.7,0,0,0-.1-1.7c-.1-.4-.8-.3-1.2-.5h-.2v1.5C209.5,158.6,209.6,158.8,209.7,158.8Z"/><path class="cls-1" d="M213.6,155.4a5,5,0,0,0,1.3.3,6.6,6.6,0,0,0,0-1.4c0-.2,0-.3-.2-.3l-1.3-.5v1.6Z"/><path class="cls-1" d="M213.6,162.5l1.3.4c.1-1.7.1-1.8-1.3-2.2h-.2v1.4C213.4,162.3,213.4,162.4,213.6,162.5Z"/><path class="cls-1" d="M214.9,159.1c0-.1,0-.3-.1-.3l-1.4-.5v.6c0,1.2,0,1.2,1.2,1.6s.3,0,.3-.2Z"/><path class="cls-1" d="M214.7,150.9h.2v-1.3a.4.4,0,0,0-.1-.3,2.9,2.9,0,0,0-1.3-.5C213.3,150.4,213.4,150.5,214.7,150.9Z"/><path class="cls-1" d="M209.8,149a4.3,4.3,0,0,0,1.2.5V148l-.2-.3c-.4-.1-.7-.4-1.2-.5v1.5C209.6,148.9,209.6,149,209.8,149Z"/><path class="cls-1" d="M213.7,164.9l1.2.4v-1.5c0-.1-.1-.2-.2-.3l-1.3-.4v1.5C213.4,164.8,213.5,164.8,213.7,164.9Z"/><path class="cls-1" d="M212.7,153.2l-1.2-.4v.6c0,1.3,0,1.3,1.3,1.6h.1v-1.5C212.9,153.4,212.8,153.2,212.7,153.2Z"/><path class="cls-1" d="M211.7,150.4h-.2v1.5c0,.1,0,.3.2.3l1.1.4C213,150.9,213,150.8,211.7,150.4Z"/><path class="cls-1" d="M211.8,159.5l1.1.3v-.6c0-1.3,0-1.3-1.4-1.6v1.5C211.5,159.3,211.6,159.4,211.8,159.5Z"/><path class="cls-1" d="M211.7,160.1h-.1c-.1,2.1-.3,1.5,1.2,2.1h.1C213.1,160.6,213,160.5,211.7,160.1Z"/><path class="cls-1" d="M209.6,161.9h-.1v1.4c0,.2.1.3.3.4l1.1.2C210.9,161.9,211.2,162.4,209.6,161.9Z"/><path class="cls-1" d="M212.8,150.2h.1c.1-1.7.1-1.7-1.2-2.2h-.1C211.4,149.7,211.4,149.7,212.8,150.2Z"/><path class="cls-1" d="M212.8,157.4h.1V156c0-.2,0-.3-.2-.3l-1.1-.4C211.4,157,211.4,157,212.8,157.4Z"/><path class="cls-1" d="M211.7,162.5h-.2v1.4c0,.2.1.3.3.4l1,.3C213,163,212.9,162.9,211.7,162.5Z"/><path class="cls-1" d="M183.4,158.1l.6-.3c.3-.1.4-.3.4-.7a5.6,5.6,0,0,1,0-1.3l-.8.4c-.2.1-.3.1-.3.3A9.2,9.2,0,0,0,183.4,158.1Z"/><path class="cls-1" d="M186.3,156.4v-1.6l-.9.4-.2.3v1.7l1-.5A.4.4,0,0,0,186.3,156.4Z"/><path class="cls-1" d="M183.9,160.5a.6.6,0,0,0,.5-.8,4.8,4.8,0,0,1,0-1.2l-.9.4c-.1,0-.2.1-.2.3v1.5Z"/><path class="cls-1" d="M184.4,161.2l-.9.4a.2.2,0,0,0-.2.2,9.2,9.2,0,0,0,.1,1.6l.6-.3a.5.5,0,0,0,.4-.6Z"/><path class="cls-1" d="M186.1,153.9c.2-.1.2-.2.2-.3v-1.5a2.6,2.6,0,0,0-.9.5c-.2,0-.2.1-.2.3v1.5Z"/><path class="cls-1" d="M183.5,164.2l-.2.3v1.4c1.1-.2,1.1-.2,1.1-1.2v-.9Z"/><path class="cls-1" d="M181.7,154.6c-.2.1-.3.2-.3.4v1.4l.9-.4c.1-.1.2-.2.2-.3v-1.6Z"/><path class="cls-1" d="M181.4,153.6a1.9,1.9,0,0,0,.9-.4c.2-.1.2-.2.2-.3v-1.6l-.9.5-.2.3Z"/><path class="cls-1" d="M182.5,159.5l-1,.4a.4.4,0,0,0-.1.3v1.4a1.5,1.5,0,0,0,.9-.4c.1,0,.2-.2.2-.3Z"/><path class="cls-1" d="M184.4,153.1l-.8.4c-.1.1-.2.2-.2.3v1.6l.7-.4c.2-.1.3-.2.3-.4Z"/><path class="cls-1" d="M183.4,152.6c.3,0,.5-.2.8-.3a.5.5,0,0,0,.2-.4v-1.6l-.9.5c-.1.1-.1.1-.1.3A7.5,7.5,0,0,0,183.4,152.6Z"/><path class="cls-1" d="M185.3,151.6l.9-.4a.4.4,0,0,0,.1-.3,7.5,7.5,0,0,0,0-1.5,1.9,1.9,0,0,0-.8.3c-.2.1-.2.2-.2.4Z"/><path class="cls-1" d="M182.5,164.7l-.9.4c-.1,0-.2.1-.2.3v1.4l.7-.2a.7.7,0,0,0,.4-.6A5.6,5.6,0,0,1,182.5,164.7Z"/><path class="cls-1" d="M186.3,160.2l-.7.4c-.2.1-.4.2-.3.5v1.4l.8-.4c.1,0,.2-.1.2-.3A8.5,8.5,0,0,0,186.3,160.2Z"/><path class="cls-1" d="M181.4,164.3l.8-.3c.2-.1.2-.1.2-.3v-1.5c-.9.1-1.1.7-1,1.5Z"/><path class="cls-1" d="M186.3,162.9l-.9.4a.5.5,0,0,0-.2.4v1.4l.9-.4c.2,0,.2-.1.2-.3Z"/><path class="cls-1" d="M185.4,158v1.8l.8-.4.2-.3v-1.5Z"/><path class="cls-1" d="M181.4,159.1l.8-.4c.1-.1.3-.2.2-.3a7.5,7.5,0,0,0,0-1.5,1.2,1.2,0,0,0-1,1.5Z"/><path class="cls-1" d="M50.1,337.9a18.2,18.2,0,0,1,7.9,6.5,18.5,18.5,0,0,1,2.7,10,17.9,17.9,0,0,1-2.7,9.9,18.2,18.2,0,0,1-7.9,6.5,28.7,28.7,0,0,1-11.9,2.3H29.3v13.2H15V335.6H38.2A28.7,28.7,0,0,1,50.1,337.9Zm-6.1,22a8,8,0,0,0,0-11c-1.5-1.3-3.7-2-6.7-2h-8v14.9h8A10.5,10.5,0,0,0,44,359.9Z"/><path class="cls-1" d="M89.8,372.9H82v13.4H67.7V335.6H90.9a29.4,29.4,0,0,1,11.9,2.3,17.4,17.4,0,0,1,7.8,6.5,17.8,17.8,0,0,1-7.1,26l10.9,15.9H99Zm6.9-24c-1.5-1.3-3.8-2-6.7-2H82v14.9h8a10.7,10.7,0,0,0,6.7-1.9,8,8,0,0,0,0-11Z"/><path class="cls-1" d="M132.4,384a26.4,26.4,0,0,1-10.1-9.5,25.7,25.7,0,0,1-3.6-13.5,25.1,25.1,0,0,1,13.7-23,32.4,32.4,0,0,1,28.9,0A25.1,25.1,0,0,1,175,361a25.7,25.7,0,0,1-3.6,13.5,26.4,26.4,0,0,1-10.1,9.5,32.4,32.4,0,0,1-28.9,0Zm21.4-10.3a12.7,12.7,0,0,0,4.9-5.1,15.9,15.9,0,0,0,1.9-7.6,15.6,15.6,0,0,0-1.9-7.6,12.7,12.7,0,0,0-4.9-5.1,14.3,14.3,0,0,0-13.9,0,12.7,12.7,0,0,0-4.9,5.1,15.5,15.5,0,0,0-1.8,7.6,15.8,15.8,0,0,0,1.8,7.6,12.7,12.7,0,0,0,4.9,5.1,14.3,14.3,0,0,0,13.9,0Z"/><path class="cls-1" d="M217.7,337.9a17.4,17.4,0,0,1,7.8,6.5,17.7,17.7,0,0,1,2.8,10,17.2,17.2,0,0,1-2.8,9.9,17.4,17.4,0,0,1-7.8,6.5,29.4,29.4,0,0,1-11.9,2.3h-8.9v13.2H182.6V335.6h23.2A29.4,29.4,0,0,1,217.7,337.9Zm-6.1,22a8,8,0,0,0,0-11c-1.5-1.3-3.8-2-6.7-2h-8v14.9h8A10.7,10.7,0,0,0,211.6,359.9Z"/><path class="cls-1" d="M292.2,337.9a17.4,17.4,0,0,1,7.8,6.5,17.7,17.7,0,0,1,2.8,10,17.2,17.2,0,0,1-2.8,9.9,17.4,17.4,0,0,1-7.8,6.5,29.5,29.5,0,0,1-12,2.3h-8.8v13.2H257.1V335.6h23.1A29.5,29.5,0,0,1,292.2,337.9Zm-6.2,22a7.7,7.7,0,0,0,0-11c-1.5-1.3-3.7-2-6.6-2h-8v14.9h8A10.4,10.4,0,0,0,286,359.9Z"/><path class="cls-1" d="M309.7,335.6h14.4v50.7H309.7Z"/><path class="cls-1" d="M353.8,367.9l-5.3,5.8v12.6H334.3V335.6h14.2v21.1l19.6-21.1h15.8l-20.7,22.5L385,386.3H368.3Z"/></svg>