<svg id="Layer_1" data-name="Layer 1" xmlns="http://www.w3.org/2000/svg" viewBox="0 0 430 100"><defs><style>.cls-1{fill:#fff;}</style></defs><path class="cls-1" d="M56.6,7.2a43.3,43.3,0,0,0-13.1,2L41.3,20.4a32.6,32.6,0,0,1,11.2-3.5h0l6.8-9.6ZM90.9,24.4l-.6-.9a2.7,2.7,0,0,1-.7-.8l-1.2-1.4a43,43,0,0,0-9.6-7.9h0L68.7,19a30,30,0,0,1,8,4.5l1.5,1.2.6.5h1.4L91,24.5A.1.1,0,0,0,90.9,24.4ZM56.6,83.3a31.7,31.7,0,0,1-6.9-.7L38.6,88.9a44.8,44.8,0,0,0,16,3.9L61,83A32.5,32.5,0,0,1,56.6,83.3ZM26.9,19.2a42.9,42.9,0,0,0-9.5,13.5l7,8.6a33.3,33.3,0,0,1,4.7-10.1ZM23.3,50V48.4c.1-.7.1-1.4.2-2.1a28.9,28.9,0,0,1,.4-2.9l-7.2-8.9A41.9,41.9,0,0,0,13.8,50v.7L16,52l1.5.8.7.4,1.5.8,4.2,2.5a43.5,43.5,0,0,1-.6-5.2Zm6.3,19.5H22.3l1.2-1.7,2.7-4.2a35.4,35.4,0,0,1-1.8-4.9l-6.1-3.5-1.4-.8-.8-.5-1.4-.8-.8-.5v1.2l.3,1.9a3.1,3.1,0,0,0,.1,1l.3,1.9a42.7,42.7,0,0,0,4.8,12.6l11.7.2Zm3.1,3.7-12.3-.3a36.2,36.2,0,0,0,2.2,3.2,90.7,90.7,0,0,0,11.8-1.2ZM38.6,78h0a93.3,93.3,0,0,1-12.7,1.9A46.1,46.1,0,0,0,36.8,88l10.6-6A30.5,30.5,0,0,1,38.6,78Zm24.7,4.6L56.5,92.8h.1a44.1,44.1,0,0,0,15.9-3l1.3-11.3A31.9,31.9,0,0,1,63.3,82.6Zm20.2-13a33.5,33.5,0,0,1-7.8,7.7h0L74.3,89a41.9,41.9,0,0,0,12.5-8.7Zm7.4-13.9L89.2,57h0A40.4,40.4,0,0,1,87,63.7l2.7,4.1,1.1,1.7H85.2L88.1,79a42.2,42.2,0,0,0,9.1-15.4ZM88.2,39.5h0A33,33,0,0,1,89.9,50v1.6l5.4-4.5c1.2-1.1,2.2-2.1,3.2-3.2Zm11.2,9.1L98,50c-1.8,1.6-3.7,3.2-5.7,4.7l5.5,6.9A40.6,40.6,0,0,0,99.4,50ZM92.1,26.1l-11.6.7h0a32.5,32.5,0,0,1,6.9,10.5h0l11.3,4.9A42.5,42.5,0,0,0,92.1,26.1ZM61.2,7.4l-6.5,9.3h1.9a32.7,32.7,0,0,1,10,1.5l10.5-5.8A42.9,42.9,0,0,0,61.2,7.4ZM28.3,17.8l2.2,11.5a35,35,0,0,1,8.9-7.8L41.7,9.9A42,42,0,0,0,28.3,17.8Z"/><path class="cls-1" d="M13.5,59.8c-.1-.7-.3-1.3-.4-1.9s-.1-.7-.1-1L12.7,55a41.9,41.9,0,0,1-.3-5A44.4,44.4,0,0,1,56.6,5.8a43.6,43.6,0,0,1,31.2,13A17,17,0,0,1,90,21.2a5.3,5.3,0,0,1,1.2,1.4l.7.8L93,24.9a43.8,43.8,0,0,1,7.1,17.3L101,41a45.9,45.9,0,0,0-6.7-16.1l-1.1-1.5-.6-.9-1.2-1.4A45.2,45.2,0,0,0,11.3,50a40.3,40.3,0,0,0,.4,6l.3,1.9a3.6,3.6,0,0,0,.2,1,16.2,16.2,0,0,0,.4,1.9A43.7,43.7,0,0,0,19.5,76h1.4A43.1,43.1,0,0,1,13.5,59.8Z"/><path class="cls-1" d="M101.7,46.2l-1,1.1c0,.9.1,1.8.1,2.7A44.4,44.4,0,0,1,56.6,94.2a43.6,43.6,0,0,1-31.2-13L24.1,80H22.7a45.3,45.3,0,0,0,79.2-30C101.9,48.7,101.8,47.5,101.7,46.2Z"/><path class="cls-1" d="M63.3,69.3l-.5.2c-15.9,6.2-30.5,9.4-41,9.4H20.3a27.2,27.2,0,0,1-9.8-1.8,9,9,0,0,1-5.1-5c-1.3-3.6.6-8.4,5.5-13.8a11.6,11.6,0,0,0,.4,1.8c-4,4.6-5.6,8.6-4.5,11.5a7.4,7.4,0,0,0,4.3,4.2,25.1,25.1,0,0,0,8.1,1.7h1.4c9.8.3,23.5-2.6,38.7-8.2Z"/><path class="cls-1" d="M108.2,31.5v.2c0,3.5-2,7.6-5.6,11.9l-1,1.2A83.7,83.7,0,0,1,83.7,59.2V59l-.7-1c8-4.9,14.3-10.2,18.4-15.1l1-1.2c2.8-3.6,4.4-7,4.5-9.8a2.3,2.3,0,0,1-2.1-2.2,2.1,2.1,0,0,1,1-1.8,7.7,7.7,0,0,0-3.6-3,20.1,20.1,0,0,0-7.4-1.4l-1-1.4a21,21,0,0,1,9,1.6,8.7,8.7,0,0,1,4.4,3.8,2.2,2.2,0,0,1,2,2.2A2.4,2.4,0,0,1,108.2,31.5Z"/><path class="cls-1" d="M82.4,59.2l-.8-1.3-25.1-38L24.6,68.4h64ZM33.6,63.4,56.5,29.6,79.6,63.4Z"/><path class="cls-1" d="M66.4,54.7A11.3,11.3,0,0,0,63,51.9a21.3,21.3,0,0,0-3.3-1.1l-1.8-.2a11.3,11.3,0,0,0-2.6,0H53.2a12.5,12.5,0,0,0-4.3,1.7l-.7.5a1,1,0,0,1-.5.4c-.1.2-.3.3-.4.4l-.4.5A2.3,2.3,0,0,0,47,57a12.3,12.3,0,0,0,9.6,4.6,12.6,12.6,0,0,0,9.7-4.7,2,2,0,0,0,.1-2.2Zm-7.1-3.4h.2c0,.1,0,.2-.1.2v.3s.1,0,0,.1l-.2-.2A.4.4,0,0,1,59.3,51.3Zm-1.8-.2h.1c0,.1.1.1,0,.2a.1.1,0,0,0-.1.1c0,.1,0,.1-.1.1a.1.1,0,0,0-.1-.1Zm-1,1.9h.3a.3.3,0,0,1-.1.2c-.1.1-.1.1,0,.2h-.3a.1.1,0,0,0-.1-.1c-.2,0-.2-.1-.1-.2s.1-.1.1-.2,0-.1.1,0A.1.1,0,0,1,56.5,53Zm-.3-.6Zm.2,0h-.2c-.1-.1-.1-.1-.1,0s-.1,0-.2,0-.1,0-.1,0,0-.2.1-.2h.4A.1.1,0,0,1,56.4,52.4Zm-2.8-1.2h.6s-.1.1-.1-.1h-.5Zm-1.6.5c0-.1.3-.1.4-.1H52C51.9,51.7,51.9,51.7,52,51.7Zm-2,3.2c.1,0,0-.1.1-.1h0c.1.1.1.2.1.4S50.1,55,50,54.9Zm4.7,2.6c0,.1-.1.1-.1.2h-.1c0,.1,0,.1.1.2s0,.3-.1.4h-.3c-.1,0-.2,0-.2.2h0c.1.1,0,.2-.1.3s-.2.1-.1.3.1.2,0,.2-.3.1-.3.2a.6.6,0,0,0,.1.6h.2a.2.2,0,0,1-.3,0l-.3-.2-.3-.7a1.4,1.4,0,0,0-.2-.6.9.9,0,0,1-.1-.5c0-.1,0-.1-.1-.2l-.3-.2h0c0-.2-.2-.4-.3-.6s-.1-.3,0-.4a1.4,1.4,0,0,0,.2-.7h-.3s-.1.1-.1,0-.3-.1-.4-.3-.1,0-.2,0-.5-.2-.6-.4a1.9,1.9,0,0,0-.3-.8h-.1c-.1-.1-.3-.2-.2-.5h0c-.1-.1-.1-.1,0-.2h0c.1,0,.1-.1.1-.2s.1-.1,0-.1h0c0-.1.1-.2,0-.3h0c-.2,0-.1-.1-.1-.2s.1,0,0-.1h-.5l.9-.5a2.8,2.8,0,0,1,1.3-.4c.1,0,.3-.1.4.1h.2c.1-.1.1-.1.2.1h.1c.1-.1.2,0,.3-.2s.2,0,.3,0-.1.2-.2.2h0v.2a.4.4,0,0,0,.1.3h.2c.1,0,.1,0,.1-.1h.1v-.2h0c0-.2,0-.2-.1-.3h-.2c-.1,0,0-.1,0-.2h.1c.1,0,.2,0,.2-.1h.1c.1,0,.1,0,.1.1s0,.2.2.2.1.1-.1.1h.1c.1.1.1.1.1.3h-.1s-.1,0,0,.2h-.2a.1.1,0,0,0-.1.1c0,.1,0,.2.1.2h.1v-.2a.2.2,0,0,1,.2.2v.2c-.1,0-.1-.1-.2,0h.1c0,.1.1.1.1.2s.1,0,0,.1h-.3l-.3.2h0a.4.4,0,0,1,.1.3c-.1,0-.3.1-.4-.1s-.2,0-.2.1-.1.1,0,.2-.1.1-.2.2h-.2c.1,0,.1.1.1.2h-.2l-.2.2h0V55c-.1.1-.1.2,0,.4h0a.1.1,0,0,1-.1-.1c0-.1-.1-.2-.1-.3s-.1-.1-.2-.2-.1-.1-.2-.1L51,55c-.1.1-.2.2-.1.3h0a.3.3,0,0,0,.3.3.1.1,0,0,0,.1-.1.1.1,0,0,1,.1-.1c0-.1.1-.1.1-.2a.4.4,0,0,1-.1.3h.1c.1.1.1.1.1.3s0,.2.1.2h.4a.2.2,0,0,0,.3,0c.1,0,.1-.2.2-.1h.1v-.2c-.1-.1-.3,0-.4,0h-.2l.3-.2h.3a.4.4,0,0,1,.1.3c-.1.2-.1.2,0,.2l.3.3h.1a1.8,1.8,0,0,1,.7.5c.1.2.3.2.6.2l.3.2C54.9,57.4,54.9,57.5,54.7,57.5Zm-2.5-1.9a.1.1,0,0,1-.1-.1C52.2,55.5,52.2,55.5,52.2,55.6Zm-.1-.1Zm3.4-3.4h-.3c-.2.1-.4.1-.4.3l-.3.3h-.1c0-.1-.1-.1,0-.2v-.3c0-.1,0-.1.1-.2a.4.4,0,0,0,.1-.3c0-.1,0-.2-.2-.1s.1-.2,0-.2.1-.3.2-.3h1.6c.1,0,.1,0,.1.1h0v.2a.3.3,0,0,1-.3.3h-.2c0,.1-.1.1-.1.2A.1.1,0,0,1,55.5,52.1Zm3.7,6.2h-.1c-.1.1-.2.2-.1.4v.2l-.6.5a.2.2,0,0,1-.3,0c-.1-.1-.3-.2-.2-.4a.5.5,0,0,0-.2-.4.5.5,0,0,1-.1-.6c.2-.3.1-.6-.2-.9a.4.4,0,0,1-.1-.3c-.1-.2-.2-.2-.4-.2h-.4a.7.7,0,0,1-.6-.2.3.3,0,0,0-.1-.2h-.2c0-.2,0-.3.1-.4h0A.9.9,0,0,1,56,55l.2-.2h.4c0-.1.2-.1.2-.3h.3c.2.1.3.1.4.3s.1.1.2.1l.5.2c.1,0,.2,0,.2-.1h.4a.4.4,0,0,1,.2.4,2,2,0,0,0,.4.8.1.1,0,0,0,.1.1l.3.2c.2,0,.2,0,.2.2l-.4.6c-.3.2-.3.2-.2.6h0C59.5,58.1,59.5,58.1,59.2,58.3Zm.8.1c-.1.1-.1.3-.2.4h-.1c-.1-.1-.1-.1-.1-.2a.5.5,0,0,0,.2-.4.1.1,0,0,1,.1.1c.1,0,.1-.1.2-.2A.6.6,0,0,1,60,58.4Zm3-1c-.1-.1-.1-.3-.3-.4s-.1-.1,0-.2h0c.1,0,.1-.2.3-.2h.1c.1.1.1.2,0,.2h-.3c0,.1,0,.1.1.1s.1.1.1.2a.2.2,0,0,0,.2.2h.1c0,.1,0,.2-.1.2S63,57.5,63,57.4Zm.2-.6h.2a.1.1,0,0,1-.1.1c-.1,0-.2,0-.1-.1S63.1,56.8,63.2,56.8Zm.2,1.4h-.2c.1.1.2,0,.2-.1Zm-.1-.2a.4.4,0,0,1,.1-.3C63.5,57.9,63.4,57.9,63.3,58Zm.4-.7a.1.1,0,0,1-.1.1c-.1.1-.1.1-.1,0a.4.4,0,0,0-.1-.3c.3-.1.3-.3.4-.4h-.1c0-.1.1,0,.1,0s.1.1.1.2S63.8,57.1,63.7,57.3Zm1.1-3h-.2c-.1-.1-.1-.2-.2-.1s-.2,0-.2-.1-.1-.1-.2-.2h-.1a.4.4,0,0,1,.1.3v.2c.1.1.2.1.1.3h0c.1.1.1.1,0,.2H64c-.1,0-.1.1-.2.2s0,.2-.1.2a.1.1,0,0,1-.1.1.1.1,0,0,0-.2,0,.2.2,0,0,0,0,.3c.1.1.1.2,0,.4s-.2-.2-.4-.2-.1,0-.1,0l-.3-.5a.1.1,0,0,0-.1-.1h-.3a.2.2,0,0,1-.2.2.3.3,0,0,0-.3.3.6.6,0,0,0,.1.4h-.1l-.2-.3c0-.1,0-.2-.1-.2h0c0-.2-.1-.3-.1-.4s-.3-.2-.5-.3h-.5c-.1-.1-.3-.1-.3-.2h-.1a.1.1,0,0,0-.1.1c0,.1.1.1.1.2s0,.1.2.1h.1c0,.1.1.1.1,0h.2v.2h-.1c-.1.1-.2.2-.2.3h-.3c-.1.1-.2,0-.3,0a3.1,3.1,0,0,1-.5-1h0c-.2-.1-.1-.2,0-.3h-.2c-.1-.1-.1,0-.1,0h-.2c0-.1-.1-.1-.2-.1v-.2h0c-.1,0-.1,0-.1.1s-.2.1-.2.2H58a.4.4,0,0,1-.1-.3h.2c0-.1,0-.1-.2-.1a.2.2,0,0,0-.3,0h-.2c-.1-.1,0-.1,0-.2h-.3c-.1-.1-.4.1-.4.3s-.2.2-.3.3-.1,0-.1-.1a.1.1,0,0,1-.1-.1.4.4,0,0,1,.3-.6h0a.1.1,0,0,1,.2,0c.1,0,.1,0,.1-.1a.2.2,0,0,1,.2-.2h.1l.3-.2c.1-.1.2.1.2,0h.5c.1,0,.1,0,.1-.1h-.1v-.2c0-.1,0-.1-.1-.1h-.1c-.1-.1-.1,0-.1.1a.8.8,0,0,1-.2.4h-.4c-.1-.1-.1-.1,0-.2h0c0-.1,0-.1.1-.1s.3-.2.4-.4a.1.1,0,0,1,.2,0h.3c.1,0,.1-.1.2,0s0,.1.1.1a.1.1,0,0,1,.1.1c0,.1.1.2.3.1H59c.1,0,.1,0,.1-.1s0-.1.1-.1,0,0,.1,0,.1-.1.1,0,.3,0,.4.1h.1c0-.1-.1-.1-.1-.2h.3c.1-.1.1-.1,0-.3h.3A11.4,11.4,0,0,1,64,53l.4.3v.2h-.1c-.1,0-.1,0-.1.1s.1.2.1.3h.3a.1.1,0,0,0,.2,0,.3.3,0,0,1,.1.2Z"/><path class="cls-1" d="M59.9,53.7c0-.1,0-.1-.1-.1h-.1c0,.1-.1.1-.2,0h0l.2.3v.2h-.1c.1,0,.1.2.3.2s.2,0,.2-.1v-.2C60,54,59.9,53.9,59.9,53.7Z"/><path class="cls-1" d="M59.1,53.8h-.5c-.1.1-.1.1,0,.2h.2c0,.1.1.1.1,0A.1.1,0,0,1,59,54c0,.1,0,.1.1.1s0-.1.1-.1h.1C59.2,53.9,59.3,53.7,59.1,53.8Z"/><path class="cls-1" d="M52.2,53.2h0c0-.1,0-.2.1-.2a.1.1,0,0,1,.1.1h0c.1.1,0,.2,0,.3h.1c.2.1.3,0,.3-.1V53h0c.2,0,.1-.1.1-.1s0-.2-.1-.2h0c0-.2,0-.2-.2-.2h0v0c0,.1,0,.1-.1.2h-.1c-.1,0-.1.2-.2.3h0A.2.2,0,0,1,52.2,53.2Z"/><path class="cls-1" d="M62.6,51.8h-.2c-.1,0-.1-.1-.1-.3V45.3c0-.1,0-.2-.1-.2L61,44.6l-.6-.2-1-.4c-.3-.1-.5-.2-.7-.1s-.1-.1-.2,0v6.7h-.3V40a.2.2,0,0,0-.2-.2l-1.2-.7a.2.2,0,0,1-.2-.2V37h0a.1.1,0,0,0-.1-.1h-.1c-.1,0-.1,0-.1.2v1.8a.5.5,0,0,1-.2.4l-1.1.6c-.2,0-.2.1-.2.2V50.4c0,.2,0,.2-.2.2s-.1.1-.1,0h0V44.9l-.5-.2-.5-.2c0-.1-.1-.1-.2,0h-.2l-.7.4-1.5.8c-.1,0-.2.1-.2.3v5.6h-.2c.3,0,.1.1.1.3l1.5-.5.8-.3h.5l1.5-.3h1.4a8.8,8.8,0,0,1,2.8.2l.9.2h.6l1.4.4.6.3C62.6,52,62.4,51.8,62.6,51.8Zm-9.4-1.1c0,.2,0,.2-.1.2s-.2,0-.1-.1h-.3c-.1,0-.1,0-.1.1s0,.1-.1.1-.1.1-.1,0h-.1s-.2,0-.2.1H52l-.8.2h0V46.6c0-.1,0-.2.1-.2l1-.6.5-.3h.4Zm2.2-.3h0a.1.1,0,1,1-.2,0h0V40.3c0-.2,0-.2.2-.2h0Zm.5-10.3V50.4a.1.1,0,1,1-.2,0V40.1c0-.2.1-.2.2-.3Zm.7,10.4c-.1.1-.1,0-.2,0h-.1V45.1h.1V39.7s-.1-.1,0-.1.2,0,.2.2V50.4S56.7,50.5,56.6,50.5Zm.7,0h-.2V39.9c.2,0,.2,0,.2.2V50.4Zm.5-.1h0a.1.1,0,1,1-.2,0h0V40.1c.2,0,.2.1.2.2Zm4,.9c0,.1,0,.1-.1.1a7.7,7.7,0,0,0-1.9-.5v-6h0l1.1.4.9.4c.1,0,.1.1.1.2Z"/><path class="cls-1" d="M59,43c0,.2.1.4.1.6a.1.1,0,0,0,.1.1l1.9.7,1,.4a4.3,4.3,0,0,1-.1-.5l-.2-.2-1.1-.4c-.3-.1-.3-.1-.3-.4V40.5c0-.2,0-.2-.2-.2s-.2,0-.2.2v2.9Z"/><path class="cls-1" d="M61.5,46.5h-.4v.4c0,.1,0,.1.1.2h.4v-.5Z"/><path class="cls-1" d="M61.5,48l-.4-.2v.5a.1.1,0,0,0,.1.1h.4v-.4A.1.1,0,0,0,61.5,48Z"/><path class="cls-1" d="M60.3,48.1h.1a.7.7,0,0,0-.1-.5c0-.1-.2-.1-.3-.2h-.1v.2C59.9,48,59.9,48,60.3,48.1Z"/><path class="cls-1" d="M60.3,46.8h-.4v.5l.4.2h.1v-.5A.1.1,0,0,0,60.3,46.8Z"/><path class="cls-1" d="M60,46.5h.4v-.4c0-.1,0-.1-.1-.1h-.4v.4C59.9,46.5,59.9,46.5,60,46.5Z"/><path class="cls-1" d="M60.3,49h-.4v.4c0,.1.1.1.1.2h.4v-.5Z"/><path class="cls-1" d="M60,48.7h.4a1.1,1.1,0,0,0-.1-.5h-.4v.4C59.9,48.7,59.9,48.7,60,48.7Z"/><path class="cls-1" d="M61.2,47.7h.3c.1-.2,0-.3,0-.4h0l-.4-.2v.5A.1.1,0,0,0,61.2,47.7Z"/><path class="cls-1" d="M61.1,49.8l.4.2c.1-.6.1-.6-.4-.7h0v.4Z"/><path class="cls-1" d="M61.6,48.8h-.5v.2c0,.3,0,.3.4.4h.1C61.5,49,61.6,48.9,61.6,48.8Z"/><path class="cls-1" d="M61.5,46.3h0c.1-.1,0-.2,0-.4h0l-.4-.2C61.1,46.2,61.1,46.2,61.5,46.3Z"/><path class="cls-1" d="M60,45.8h.4v-.4a.1.1,0,0,0-.1-.1l-.4-.2v.5Z"/><path class="cls-1" d="M61.2,50.5l.3.2v-.5h-.4v.5Z"/><path class="cls-1" d="M60.9,47h-.4v.2c0,.4,0,.4.4.5h0v-.5Z"/><path class="cls-1" d="M60.6,46.2h-.1v.4c0,.1,0,.1.1.1h.3C61,46.3,61,46.3,60.6,46.2Z"/><path class="cls-1" d="M60.6,48.9h.3v-.2c0-.3,0-.3-.4-.4v.4C60.5,48.9,60.5,48.9,60.6,48.9Z"/><path class="cls-1" d="M60.6,49.1h-.1c0,.6-.1.5.4.6h0C61,49.3,61,49.2,60.6,49.1Z"/><path class="cls-1" d="M60,49.6a.1.1,0,0,0-.1.1v.4h.4C60.3,49.6,60.4,49.8,60,49.6Z"/><path class="cls-1" d="M60.9,46.1h0c.1-.5.1-.5-.3-.6h-.1C60.5,46,60.5,46,60.9,46.1Z"/><path class="cls-1" d="M60.9,48.3h0v-.4h-.4C60.5,48.2,60.5,48.2,60.9,48.3Z"/><path class="cls-1" d="M60.6,49.8h-.1v.5a.1.1,0,0,1,.1.1h.3C61,50,61,49.9,60.6,49.8Z"/><path class="cls-1" d="M52,48.5h.2l.2-.2c-.1-.1,0-.2,0-.4h-.3a.1.1,0,0,1-.1.1Z"/><path class="cls-1" d="M52.9,48v-.5h-.3v.5h.3Z"/><path class="cls-1" d="M52.2,49.2a.2.2,0,0,0,.2-.2c-.1-.1,0-.2,0-.4H52v.5Z"/><path class="cls-1" d="M52.4,49.4h-.3a.1.1,0,0,1-.1.1v.5h.2a.2.2,0,0,0,.2-.2Z"/><path class="cls-1" d="M52.9,47.2h0v-.4h-.3v.5Z"/><path class="cls-1" d="M52.1,50.3a.1.1,0,0,1-.1.1v.5c.4-.1.4-.1.4-.4v-.3Z"/><path class="cls-1" d="M51.5,47.4V48h.3v-.5Z"/><path class="cls-1" d="M51.5,47.2c.1-.1.2-.1.2-.2s.1,0,.1-.1v-.4h-.3Z"/><path class="cls-1" d="M51.8,48.9l-.3.2h0v.5l.2-.2c.1,0,.1,0,.1-.1Z"/><path class="cls-1" d="M52.4,47h-.3v.5c0-.1.1-.1.2-.1s.1-.1.1-.2Z"/><path class="cls-1" d="M52.1,46.8h.2c0-.1.1-.1.1-.2v-.4h-.3a.1.1,0,0,0-.1.1C52.1,46.5,52,46.7,52.1,46.8Z"/><path class="cls-1" d="M52.6,46.6l.3-.2h0c0-.1.1-.3,0-.4h-.2c-.1,0-.1,0-.1.1Z"/><path class="cls-1" d="M51.8,50.5h-.3v.4h.2c0-.1.1-.1.1-.2Z"/><path class="cls-1" d="M52.9,49.1c0,.1-.1.1-.2.2s-.1,0-.1.1v.4h.3C52.9,49.5,53,49.3,52.9,49.1Z"/><path class="cls-1" d="M51.5,50.4h.3v-.5c-.3.1-.4.2-.3.5Z"/><path class="cls-1" d="M52.9,49.9l-.2.2c-.1,0-.1,0-.1.1v.4h.3Z"/><path class="cls-1" d="M52.7,48.5h-.1V49h.3v-.4Z"/><path class="cls-1" d="M51.5,48.8h.3v-.5c-.3.1-.4.3-.3.5Z"/><path class="cls-1" d="M155.6,31.4a14.3,14.3,0,0,1,8.5,13.3,14.2,14.2,0,0,1-2.3,8,13.9,13.9,0,0,1-6.2,5.2,24.3,24.3,0,0,1-9.7,1.8h-7.1V70.4H127.3V29.6h18.6A24.3,24.3,0,0,1,155.6,31.4Zm-5,17.7a5.4,5.4,0,0,0,1.8-4.4,5.4,5.4,0,0,0-1.8-4.4c-1.2-1.1-3-1.6-5.4-1.6h-6.4V50.6h6.4A8.3,8.3,0,0,0,150.6,49.1Z"/><path class="cls-1" d="M187.5,59.6h-6.3V70.4H169.7V29.6h18.6a23.5,23.5,0,0,1,9.6,1.8,13.9,13.9,0,0,1,6.3,5.3,14.1,14.1,0,0,1,2.2,8,14.1,14.1,0,0,1-2,7.7,15,15,0,0,1-5.9,5.2l8.8,12.8H194.9ZM193,40.3c-1.2-1.1-3-1.6-5.4-1.6h-6.4V50.6h6.4a8.3,8.3,0,0,0,5.4-1.5,5.4,5.4,0,0,0,1.8-4.4A5.4,5.4,0,0,0,193,40.3Z"/><path class="cls-1" d="M221.7,68.5a20.9,20.9,0,0,1,0-37,25.2,25.2,0,0,1,11.7-2.7A24.5,24.5,0,0,1,245,31.5a21.2,21.2,0,0,1,8.1,7.6,20.3,20.3,0,0,1,3,10.9,20.3,20.3,0,0,1-3,10.9,21.2,21.2,0,0,1-8.1,7.6,24.5,24.5,0,0,1-11.6,2.7A25.2,25.2,0,0,1,221.7,68.5ZM239,60.2a10.3,10.3,0,0,0,3.9-4.1,13.2,13.2,0,0,0,0-12.2,10.3,10.3,0,0,0-3.9-4.1,10.9,10.9,0,0,0-5.6-1.5,10.7,10.7,0,0,0-5.6,1.5,10.5,10.5,0,0,0-4,4.1,12.2,12.2,0,0,0-1.4,6.1,12.2,12.2,0,0,0,1.4,6.1,10.5,10.5,0,0,0,4,4.1,10.7,10.7,0,0,0,5.6,1.5A10.9,10.9,0,0,0,239,60.2Z"/><path class="cls-1" d="M290.4,31.4a15,15,0,0,1,6.3,5.3,14.1,14.1,0,0,1,2.2,8,14.1,14.1,0,0,1-2.2,8,14.8,14.8,0,0,1-6.3,5.2,23.5,23.5,0,0,1-9.6,1.8h-7.1V70.4H262.1V29.6h18.7A23.5,23.5,0,0,1,290.4,31.4Zm-5,17.7a5.4,5.4,0,0,0,1.8-4.4,5.4,5.4,0,0,0-1.8-4.4,7.6,7.6,0,0,0-5.3-1.6h-6.4V50.6h6.4A8.2,8.2,0,0,0,285.4,49.1Z"/><path class="cls-1" d="M350.3,31.4a15,15,0,0,1,6.3,5.3,14.1,14.1,0,0,1,2.2,8,14.1,14.1,0,0,1-2.2,8,14.8,14.8,0,0,1-6.3,5.2,23.5,23.5,0,0,1-9.6,1.8h-7.1V70.4H322V29.6h18.7A23.5,23.5,0,0,1,350.3,31.4Zm-4.9,17.7a5.4,5.4,0,0,0,1.8-4.4,5.4,5.4,0,0,0-1.8-4.4c-1.2-1.1-3-1.6-5.4-1.6h-6.4V50.6H340A8.3,8.3,0,0,0,345.4,49.1Z"/><path class="cls-1" d="M364.4,29.6H376V70.4H364.4Z"/><path class="cls-1" d="M399.9,55.6l-4.3,4.6V70.4H384.2V29.6h11.4v17l15.8-17h12.7L407.5,47.7,425,70.4H411.6Z"/></svg>