<?xml version="1.0" encoding="utf-8"?>
<!-- Generator: Adobe Illustrator 23.0.3, SVG Export Plug-In . SVG Version: 6.00 Build 0)  -->
<svg version="1.1" id="katman_1" xmlns="http://www.w3.org/2000/svg" xmlns:xlink="http://www.w3.org/1999/xlink" x="0px" y="0px"
	 viewBox="0 0 34 34" style="enable-background:new 0 0 34 34;" xml:space="preserve">
<style type="text/css">
	.st0{fill:none;stroke:#000000;stroke-miterlimit:10;}
	.st1{stroke:#000000;stroke-width:5.000000e-02;stroke-miterlimit:10;}
	.st2{fill:#FFFFFF;stroke:#000000;stroke-miterlimit:10;}
</style>
<path class="st0" d="M1,1h9.2v27.5c0,2.5-2.1,4.5-4.6,4.5S1,31,1,28.5V1z"/>
<path class="st1" d="M13.1,25.7l16.3-9.8c0.3-0.2,0.4-0.5,0.2-0.8l-4.8-7.7c-0.2-0.3-0.5-0.3-0.8-0.2l-11,6.7v1.3l5.2-3.1l4.2,6.8
	l-9.3,5.6L13.1,25.7z M19.1,11.5l5-3l4.2,6.8l-5,3L19.1,11.5z"/>
<path class="st2" d="M4.4,28.5c0-0.7,0.5-1.2,1.2-1.2s1.2,0.5,1.2,1.2s-0.5,1.2-1.2,1.2S4.4,29.1,4.4,28.5z"/>
<path class="st1" d="M11.7,31.9l19,0.3c0.3,0,0.6-0.2,0.6-0.5v-9.1c0-0.3-0.3-0.6-0.6-0.6l-12.9-0.2L17.1,23l6.1,0.1V31l-10.8-0.2
	L11.7,31.9z M24.3,23.1l5.8,0.1v7.9L24.3,31V23.1z"/>
</svg>
