<?xml version="1.0" encoding="utf-8"?>
<!-- Generator: Adobe Illustrator 23.0.3, SVG Export Plug-In . SVG Version: 6.00 Build 0)  -->
<svg version="1.1" id="katman_1" xmlns="http://www.w3.org/2000/svg" xmlns:xlink="http://www.w3.org/1999/xlink" x="0px" y="0px"
	 viewBox="0 0 40 34" style="enable-background:new 0 0 40 34;" xml:space="preserve">
<style type="text/css">
	.st0{fill:none;stroke:#000000;stroke-width:1.5;stroke-miterlimit:10;}
</style>
<path class="st0" d="M2,29.4V11.7c0-0.9,0.4-1.8,1.1-2.5s1.6-1,2.5-1h0.9c0.6,0,1.1-0.1,1.6-0.4c0.5-0.2,0.9-0.6,1.3-1l4-5.3
	c0.1-0.1,0.2-0.2,0.4-0.3S14.1,1,14.2,1h11.5c0.2,0,0.3,0,0.5,0.1s0.3,0.2,0.4,0.3l4,5.3c0.3,0.4,0.8,0.8,1.3,1
	c0.5,0.2,1.1,0.4,1.6,0.4h0.9c1,0,1.9,0.4,2.5,1c0.7,0.7,1.1,1.6,1.1,2.5v17.8c0,0.9-0.4,1.8-1.1,2.5c-0.7,0.7-1.6,1-2.5,1H5.6
	c-1,0-1.9-0.4-2.5-1C2.4,31.3,2,30.4,2,29.4z"/>
<path class="st0" d="M20,25.9c1.9,0,3.7-0.7,5.1-2.1c1.4-1.3,2.1-3.1,2.1-5s-0.8-3.7-2.1-5c-1.4-1.3-3.2-2.1-5.1-2.1
	s-3.7,0.7-5.1,2.1c-1.4,1.3-2.1,3.1-2.1,5s0.8,3.7,2.1,5C16.3,25.1,18.1,25.9,20,25.9L20,25.9z"/>
</svg>
