<svg id="Layer_1" data-name="Layer 1" xmlns="http://www.w3.org/2000/svg" viewBox="0 0 430 101"><defs><style>.cls-1,.cls-2{fill:#282973;}.cls-2{font-size:15.59px;font-family:Montserrat-Bold, Montserrat;font-weight:700;}.cls-3{letter-spacing:-0.01em;}.cls-4{letter-spacing:0em;}.cls-5{letter-spacing:-0.01em;}.cls-6{letter-spacing:0em;}.cls-7{letter-spacing:-0.04em;}.cls-8{letter-spacing:-0.03em;}</style></defs><path class="cls-1" d="M56.6,7.7a43.3,43.3,0,0,0-13.1,2L41.3,20.9a32.6,32.6,0,0,1,11.2-3.5h0l6.8-9.7ZM90.9,24.9l-.6-.9-.7-.8-1.2-1.4a40.5,40.5,0,0,0-9.6-7.9h0L68.7,19.5a30,30,0,0,1,8,4.5l1.5,1.2.6.5h1.4L91,24.9ZM56.6,83.8a31.7,31.7,0,0,1-6.9-.7L38.6,89.3a42.9,42.9,0,0,0,16,4L61,83.5A32.5,32.5,0,0,1,56.6,83.8ZM26.9,19.7a42.9,42.9,0,0,0-9.5,13.5l7,8.6a32.2,32.2,0,0,1,4.7-10.1ZM23.3,50.5V48.8c.1-.6.1-1.3.2-2a25.4,25.4,0,0,1,.4-2.9L16.7,35a41.9,41.9,0,0,0-2.9,15.5v.6L16,52.4l1.5.9.7.4,1.5.8L23.9,57a46,46,0,0,1-.6-5.2ZM29.6,70H22.3l1.2-1.8,2.7-4.1a35.4,35.4,0,0,1-1.8-4.9l-6.1-3.5-1.4-.8-.8-.5-1.4-.8-.8-.5v1.2l.3,1.9a3.4,3.4,0,0,0,.1,1l.3,1.9a42.1,42.1,0,0,0,4.8,12.5l11.7.3Zm3.1,3.6-12.3-.2,2.2,3.2a77.1,77.1,0,0,0,11.8-1.3A13.7,13.7,0,0,1,32.7,73.6Zm5.9,4.9h0a93.3,93.3,0,0,1-12.7,1.9,43.2,43.2,0,0,0,10.9,8l10.6-5.9A33.5,33.5,0,0,1,38.6,78.5Zm24.7,4.6L56.5,93.3h.1a42.1,42.1,0,0,0,15.9-3.1L73.8,79A31.9,31.9,0,0,1,63.3,83.1Zm20.2-13a33.5,33.5,0,0,1-7.8,7.7h0L74.3,89.5a41.9,41.9,0,0,0,12.5-8.7Zm7.4-13.9-1.7,1.2h0A35.1,35.1,0,0,1,87,64.1l2.7,4.1L90.8,70H85.2l2.9,9.4A40.6,40.6,0,0,0,97.2,64ZM88.2,40h0a33,33,0,0,1,1.7,10.5v1.6l5.4-4.5c1.2-1.1,2.2-2.1,3.2-3.2Zm11.2,9.1L98,50.5c-1.8,1.6-3.7,3.2-5.7,4.7l5.5,6.9a40.6,40.6,0,0,0,1.6-11.6ZM92.1,26.5l-11.6.8h0a32.5,32.5,0,0,1,6.9,10.5h0l11.3,4.9A43.7,43.7,0,0,0,92.1,26.5ZM61.2,7.9l-6.5,9.3h1.9a32.7,32.7,0,0,1,10,1.5l10.5-5.8A42.9,42.9,0,0,0,61.2,7.9ZM28.3,18.3l2.2,11.5A33.1,33.1,0,0,1,39.4,22l2.3-11.7A44.2,44.2,0,0,0,28.3,18.3Z"/><path class="cls-1" d="M13.5,60.2c-.1-.6-.3-1.2-.4-1.8s-.1-.7-.1-1l-.3-2a39.1,39.1,0,0,1-.3-4.9A44.2,44.2,0,0,1,87.8,19.2L90,21.6a7.9,7.9,0,0,1,1.2,1.5l.7.8L93,25.4a43.4,43.4,0,0,1,7.1,17.2l.9-1.1a45.1,45.1,0,0,0-6.7-16.1l-1.1-1.5-.6-.9-1.2-1.5a45.3,45.3,0,0,0-80.1,29,38.1,38.1,0,0,0,.4,5.9l.3,2a4.4,4.4,0,0,0,.2,1,16.2,16.2,0,0,0,.4,1.9,43.7,43.7,0,0,0,6.9,15.2h1.4A43.5,43.5,0,0,1,13.5,60.2Z"/><path class="cls-1" d="M101.7,46.7l-1,1.1c0,.9.1,1.8.1,2.7A44.4,44.4,0,0,1,56.6,94.7a43.6,43.6,0,0,1-31.2-13l-1.3-1.2H22.7a45.3,45.3,0,0,0,79.2-30C101.9,49.2,101.8,48,101.7,46.7Z"/><path class="cls-1" d="M63.3,69.8l-.5.2c-15.9,6.1-30.5,9.4-41,9.4H20.3a25.1,25.1,0,0,1-9.8-1.9,8.8,8.8,0,0,1-5.1-4.9C4.1,69,6,64.2,10.9,58.8a11.6,11.6,0,0,0,.4,1.8c-4,4.6-5.6,8.6-4.5,11.5a7.4,7.4,0,0,0,4.3,4.2A25.1,25.1,0,0,0,19.2,78h1.4c9.8.3,23.5-2.6,38.7-8.2Z"/><path class="cls-1" d="M108.2,32h0c0,3.6-2,7.7-5.6,12l-1,1.2A83.7,83.7,0,0,1,83.7,59.7v-.3l-.7-.9c8-4.9,14.3-10.2,18.4-15.1l1-1.2c2.8-3.7,4.4-7,4.5-9.9a2.1,2.1,0,0,1-1.1-3.9,7.7,7.7,0,0,0-3.6-3A20.1,20.1,0,0,0,94.7,24l-1-1.4a21.1,21.1,0,0,1,9,1.5,9.4,9.4,0,0,1,4.4,3.9,2.1,2.1,0,0,1,2,2.2A2.4,2.4,0,0,1,108.2,32Z"/><path class="cls-1" d="M82.4,59.6l-.8-1.2-25.1-38L24.6,68.9h64ZM33.6,63.9,56.5,30.1,79.6,63.9Z"/><path class="cls-1" d="M66.4,55.2A11.3,11.3,0,0,0,63,52.4a14.2,14.2,0,0,0-3.3-1.1l-1.8-.2a11.3,11.3,0,0,0-2.6,0H53.2a12.5,12.5,0,0,0-4.3,1.7l-.7.5-.5.4c-.1.2-.3.3-.4.4l-.4.5a2.1,2.1,0,0,0,.1,2.5,12.1,12.1,0,0,0,9.6,4.7,12.6,12.6,0,0,0,9.7-4.7,2,2,0,0,0,.1-2.2Zm-7.1-3.4h.1c.1,0,.1-.1.1,0s0,.2-.1.2v.2c0,.1.1.1,0,.2l-.2-.2A.4.4,0,0,1,59.3,51.8Zm-1.8-.2h.1c0,.1.1.1,0,.1s-.1.1-.1.2,0,.1-.1.1,0-.1-.1-.1Zm-1,1.9h.3c0,.1-.1.1-.1.2s-.1.1,0,.1h0c-.1,0-.2.1-.3,0a.1.1,0,0,0-.1-.1c-.2,0-.2-.1-.1-.2a.3.3,0,0,1,.1-.2c0-.1,0-.1.1-.1A.3.3,0,0,1,56.5,53.5Zm-.3-.6Zm.2,0h-.2c-.1-.1-.1-.1-.1,0s-.1,0-.2,0-.1,0-.1-.1h.5A.1.1,0,0,1,56.4,52.9Zm-2.8-1.3c.2,0,.4-.1.5,0h.1s-.1.1-.1-.1-.1,0-.2,0h-.3Zm-1.6.5h0C51.9,52.2,51.9,52.2,52,52.1Zm-2,3.3c.1-.1,0-.2.1-.2h0a.9.9,0,0,1,.1.5C50.1,55.7,50.1,55.5,50,55.4ZM54.7,58c0,.1-.1.1-.1.2h-.1c0,.1,0,.1.1.2s0,.3-.1.4h-.3c-.1,0-.2,0-.2.2h0c.1.1,0,.2-.1.3s-.2.1-.1.3.1.2,0,.1-.3.2-.3.3a.7.7,0,0,0,.1.6h.2a.2.2,0,0,1-.3,0q-.2,0-.3-.3l-.3-.6a1.9,1.9,0,0,0-.2-.7c-.1-.1-.1-.2-.1-.4s0-.2-.1-.2l-.3-.2h0c0-.3-.2-.4-.3-.7a.2.2,0,0,1,0-.3,1.4,1.4,0,0,0,.2-.7s0-.1-.1,0h-.3c-.2-.1-.3-.1-.4-.3s-.1,0-.2-.1a.6.6,0,0,1-.6-.4,4.1,4.1,0,0,0-.3-.8h-.1c-.1-.1-.3-.2-.2-.5h0c-.1-.1-.1-.1,0-.2h0c.1,0,.1-.1.1-.2s.1-.1,0-.1h0c0-.1.1-.2,0-.3h0c-.2,0-.1-.1-.1-.2s.1,0,0-.1h-.5l.9-.5a2.8,2.8,0,0,1,1.3-.4c.1,0,.3-.1.4.1h.5l.3-.2c0-.1.2-.1.3,0h-.2v.2a.4.4,0,0,0,.1.3h.1c0-.1.1,0,.1,0s.1,0,.1-.1h.1v-.2h0c0-.1,0-.1-.1-.2h-.2c-.1,0,0-.1,0-.2h.1c.1,0,.2,0,.2-.1a.1.1,0,0,1,.1-.1c.1,0,.1,0,.1.1s0,.2.2.2.1.1-.1.1h.1c.1,0,.1.1.1.2s0,.1-.1.1-.1.1,0,.2a.2.2,0,0,1-.2.2.1.1,0,0,0-.1.1c0,.1,0,.2.1.2h.3v.3h-.2a.1.1,0,0,0,.1.1h0c0,.1.1.1.1.2s.1,0,0,.1h-.3l-.3.2h0a.3.3,0,0,1,.1.2H53a.1.1,0,0,0-.2,0c.1.1-.1.2,0,.3s-.1.1-.2.2h-.2a.1.1,0,0,1,.1.1c0,.1-.1.1-.2.1l-.2.2h0v.2a.2.2,0,0,0,0,.3h0c-.1.1-.1,0-.1,0s-.1-.2-.1-.3-.1-.1-.2-.2-.1-.1-.2-.1l-.5.2c-.1,0-.2.1-.1.3h0c0,.2.1.3.3.2h.1c0-.1,0-.1.1-.2h.1a.4.4,0,0,1-.1.3h.1c.1,0,.1.1.1.3s0,.1.1.2H52s0-.1.1,0a.2.2,0,0,0,.3,0c.1-.1.1-.2.2-.1h.1v-.2a.3.3,0,0,0-.4,0h-.2l.3-.2c0-.1.3,0,.3,0a.4.4,0,0,1,.1.3c-.1.1-.1.1,0,.2l.3.3h.1a1.8,1.8,0,0,1,.7.5c.1.2.3.2.6.2s.2,0,.3.2S54.9,58,54.7,58Zm-2.5-1.9a.1.1,0,0,0-.1-.1C52.2,56,52.2,56,52.2,56.1Zm-.1-.1h0Zm3.4-3.4c-.1-.1-.2,0-.3,0h0c-.2,0-.4.1-.4.3s-.2.1-.3.3a.1.1,0,0,1-.1-.1s-.1-.1,0-.1v-.3c0-.1,0-.2.1-.2a.4.4,0,0,0,.1-.3c0-.2,0-.2-.2-.1a.2.2,0,0,0,0-.3s.1-.2.2-.2h1.6c.1,0,.1,0,.1.1h0v.2c0,.2-.2.2-.3.3h0a.1.1,0,0,1,.1.1h-.3c0,.1-.1.1-.1.2A.1.1,0,0,1,55.5,52.6Zm3.7,6.1h-.1c-.1.1-.2.2-.1.3v.2a3.4,3.4,0,0,1-.6.6.2.2,0,0,1-.3,0c-.1-.1-.3-.2-.2-.4s-.1-.3-.2-.5-.2-.3-.1-.5.1-.6-.2-.9a.4.4,0,0,1-.1-.3c-.1-.2-.2-.3-.4-.2h-.4a.7.7,0,0,1-.6-.2.3.3,0,0,0-.1-.2h-.2c0-.2,0-.3.1-.4h0a.9.9,0,0,1,.3-.7c0-.1.1-.1.2-.2h.4c0-.1.2-.2.2-.3h.1c0-.1.1,0,.2-.1h0c.2.1.3.1.4.3s.1.1.2.1l.5.2c.1,0,.2,0,.2-.1h.4a.4.4,0,0,1,.2.4,2,2,0,0,0,.4.8h.1l.3.2c.2,0,.2,0,.2.1a.9.9,0,0,1-.4.6c-.3.3-.3.3-.2.7h0C59.5,58.6,59.5,58.6,59.2,58.7Zm.8.2-.2.4h-.1c-.1-.1-.1-.1-.1-.2a.8.8,0,0,0,.2-.4.1.1,0,0,1,.1.1c.1-.1.1-.2.2-.2A.8.8,0,0,1,60,58.9Zm3-1c-.1-.2-.1-.3-.3-.4s-.1-.2,0-.3h0c.1,0,.1-.2.3-.2h.1c.1.1.1.1,0,.2h-.3a.1.1,0,0,0,.1.1c0,.1.1.1.1.2s.1.1.2.1h.1c0,.1,0,.1-.1.2S63,58,63,57.9Zm.2-.6c.1,0,.2,0,.2.1a.1.1,0,0,1-.1.1c-.1,0-.2,0-.1-.1S63.1,57.3,63.2,57.3Zm.2,1.4h-.2c.1.1.2,0,.2-.1Zm-.1-.2a.4.4,0,0,1,.1-.3C63.5,58.4,63.4,58.4,63.3,58.5Zm.4-.7a.1.1,0,0,1-.1.1c-.1.1-.1,0-.1,0a.4.4,0,0,0-.1-.3c.3-.1.3-.3.4-.4h-.2a.1.1,0,0,0,.1-.1h.1c.1,0,.1.1.1.2S63.8,57.6,63.7,57.8Zm1.1-3h0c0-.1-.2-.1-.2-.2s-.1-.1-.2,0-.2,0-.2-.1-.1-.1-.2-.2h-.1a.4.4,0,0,1,.1.3v.2c.1,0,.2.1.1.2v.2c.1.1.1.1,0,.2H64c-.1,0-.1.1-.2.2s0,.2-.1.2a.1.1,0,0,1-.1.1c-.1-.1-.2-.1-.2,0a.2.2,0,0,0,0,.3c.1.1.1.2,0,.4s-.2-.2-.4-.2h-.1l-.3-.5c0-.1,0-.1-.1-.1h-.3a.2.2,0,0,1-.2.2.3.3,0,0,0-.3.3.6.6,0,0,0,.1.4h-.1c-.1,0-.1-.1-.2-.2s0-.2-.1-.2v-.2c0-.1-.1-.2-.1-.3s-.3-.2-.5-.3h-.5c-.1-.1-.3-.1-.3-.3s-.1-.1-.1,0a.1.1,0,0,0-.1.1c0,.1.1.1.1.2s0,.1.2,0a.1.1,0,0,0,.1.1s.1.1.1,0h.2a.1.1,0,0,1-.1.1.2.2,0,0,0-.2.2c0,.1-.1.1-.1.2h-.2c-.1.1-.2,0-.3-.1a1.9,1.9,0,0,1-.5-.9h0c-.2-.2-.1-.2,0-.3h-.2c-.1-.1-.1-.1-.1,0h-.4v-.2h0c-.1,0-.1,0-.1.1s-.2.1-.2.2H58a.4.4,0,0,1-.1-.3h.2c0-.2,0-.2-.2-.2h-.5c-.1-.1,0-.1,0-.2h-.3c-.1,0-.4.2-.4.4s-.2.2-.3.3a3980657295328.2,3980657295328.2,0,0,1-.2-.2.4.4,0,0,1,.3-.6h0a.1.1,0,0,1,.2,0c.1,0,.1,0,.1-.1a.2.2,0,0,1,.2-.2h.1l.3-.2c.1-.1.2.1.2,0h.5c.1,0,.1,0,.1-.1h-.1V53c0-.1,0-.1-.1-.2h-.1c-.1-.1-.1,0-.1.1a.8.8,0,0,1-.2.4h-.4a.2.2,0,0,1,0-.3h0c0-.1,0-.1.1-.1s.3-.2.4-.4a.1.1,0,0,1,.2,0h.3c.1-.1.1-.1.2,0s0,0,.1.1h.1c0,.2.1.3.3.2H59a.1.1,0,0,0,.1-.1c0-.1,0-.1.1-.2a.1.1,0,0,0,.1.1s.1-.1.1,0,.3,0,.4.1h.1c0-.1-.1-.1-.1-.2a.1.1,0,0,1-.1-.1h.4a.2.2,0,0,0,0-.3h.3A11.4,11.4,0,0,1,64,53.5l.4.3V54h-.1c-.1,0-.1,0-.1.1s.1.2.1.3h.6C64.9,54.7,64.9,54.8,64.8,54.8Z"/><path class="cls-1" d="M59.9,54.2c0-.1,0-.1-.1-.1s-.1-.1-.1,0-.1.1-.2,0h0l.2.3v.2h-.1l.3.2c.1.1.2,0,.2-.1v-.2C60,54.5,59.9,54.4,59.9,54.2Z"/><path class="cls-1" d="M59.1,54.3h-.5c-.1.1-.1.1,0,.1s.1.1.2.2.1.1.1,0a.1.1,0,0,1,.1-.1.1.1,0,0,0,.1.1c.1,0,0-.1.1-.1h.1C59.2,54.4,59.3,54.2,59.1,54.3Z"/><path class="cls-1" d="M52.2,53.7h0c0-.1,0-.2.1-.2a.1.1,0,0,1,.1.1h0c.1.1,0,.2,0,.3h.1c.2,0,.3,0,.3-.1v-.3h0c.2,0,.1-.1.1-.1s0-.2-.1-.2v-.2c0-.2,0-.2-.2-.1h0v0a.3.3,0,0,1-.1.2h-.1l-.2.3v.2A.2.2,0,0,1,52.2,53.7Z"/><path class="cls-1" d="M62.6,52.3h-.2c-.1-.1-.1-.1-.1-.3V45.7a.1.1,0,0,0-.1-.1L61,45.1l-.6-.2-1-.4c-.3-.1-.5-.2-.7-.1s-.1-.1-.2,0h0v6.6h-.3V40.5a.2.2,0,0,0-.2-.2l-1.2-.7a.2.2,0,0,1-.2-.2V37.5h0a.1.1,0,0,0-.1-.1h-.1c-.1,0-.1,0-.1.2v1.8a.5.5,0,0,1-.2.4l-1.1.5c-.2.1-.2.2-.2.3V50.9c0,.2,0,.2-.2.2a.1.1,0,0,1-.1-.1h0V45.4a.9.9,0,0,1-.5-.3h-.5c0-.1-.1-.1-.2-.1l-.2.2-.7.4-1.5.8a.2.2,0,0,0-.2.2v5.7h-.2c.3,0,.1.1.1.3l1.5-.6.8-.2h.5l1.5-.2h1.4l2.8.2.9.2.6.2,1.4.4.6.3C62.6,52.5,62.4,52.3,62.6,52.3Zm-9.4-1.1c0,.1,0,.2-.1.2s-.2,0-.1-.1h-.3c-.1,0-.1,0-.1.1s0,.1-.1.1-.1.1-.1,0h-.1s-.2,0-.2.1-.1,0-.1.1l-.8.2V47.1a.4.4,0,0,1,.1-.3l1-.5.5-.3.4-.2v5.4Zm2.2-.3h0a.1.1,0,1,1-.2,0h0V40.8c0-.2,0-.2.2-.2h0Zm.5-10.3V50.9a.1.1,0,1,1-.2,0V40.5a.2.2,0,0,1,.2-.2ZM56.6,51h-.3V45.5h.1V40.2s-.1-.1,0-.1.2,0,.2.2V50.8C56.6,50.9,56.7,51,56.6,51Zm.7-.1c0,.1,0,.1-.1.1s-.1,0-.1-.1V40.5h0c.2,0,.2,0,.2.2V50.9Zm.5,0h0a.1.1,0,0,1-.1.1c0-.1-.1,0-.1-.1h0V40.7h0c.2,0,.2.1.2.2Zm4,.9c0,.1,0,.1-.1.1l-1.9-.6h-.1V45.4h0l1.1.4.9.4c.1,0,.1.1.1.2Z"/><path class="cls-1" d="M59,43.5c0,.2.1.4.1.6a.1.1,0,0,0,.1.1l1.9.7,1,.4c0-.2-.1-.3-.1-.5a.2.2,0,0,0-.2-.2l-1.1-.4c-.3-.1-.3-.1-.3-.4V41c0-.2,0-.2-.2-.2s-.2,0-.2.1v3Z"/><path class="cls-1" d="M61.5,47h-.4v.4c0,.1,0,.1.1.1l.4.2v-.5Z"/><path class="cls-1" d="M61.5,48.5l-.4-.2v.5h.5v-.4A.1.1,0,0,0,61.5,48.5Z"/><path class="cls-1" d="M60.3,48.6h.1a.7.7,0,0,0-.1-.5c0-.1-.2-.1-.3-.2h-.1v.2C59.9,48.5,59.9,48.5,60.3,48.6Z"/><path class="cls-1" d="M60.3,47.3h-.4v.5l.4.2h.1v-.5A.1.1,0,0,0,60.3,47.3Z"/><path class="cls-1" d="M60,47h.4v-.4c0-.1,0-.1-.1-.1l-.4-.2v.5A.1.1,0,0,0,60,47Z"/><path class="cls-1" d="M60.3,49.5h-.4v.4a.1.1,0,0,0,.1.1h.4v-.4A.1.1,0,0,0,60.3,49.5Z"/><path class="cls-1" d="M60,49.2h.4a.9.9,0,0,0-.1-.5l-.3-.2h-.1v.5A.1.1,0,0,0,60,49.2Z"/><path class="cls-1" d="M61.2,48.2h.3c.1-.2,0-.3,0-.5h0l-.4-.2v.5A.1.1,0,0,0,61.2,48.2Z"/><path class="cls-1" d="M61.1,50.3h.4c.1-.5.1-.5-.4-.6h0v.4Z"/><path class="cls-1" d="M61.6,49.3h-.5c0,.4,0,.4.4.5a.1.1,0,0,0,.1-.1C61.5,49.5,61.6,49.4,61.6,49.3Z"/><path class="cls-1" d="M61.5,46.8h0c.1-.1,0-.2,0-.4h-.4C61.1,46.7,61.1,46.7,61.5,46.8Z"/><path class="cls-1" d="M60,46.3h.4v-.5h-.1a.5.5,0,0,0-.4-.2v.5Z"/><path class="cls-1" d="M61.2,51l.3.2v-.5h-.4v.4C61.1,51,61.1,51,61.2,51Z"/><path class="cls-1" d="M60.9,47.5h-.4v.2c0,.3,0,.3.4.5h0v-.5Z"/><path class="cls-1" d="M60.6,46.7h-.1v.4c0,.1,0,.1.1.1h.3C61,46.8,61,46.8,60.6,46.7Z"/><path class="cls-1" d="M60.6,49.4h.3v-.2c0-.4,0-.4-.4-.5v.5A.1.1,0,0,0,60.6,49.4Z"/><path class="cls-1" d="M60.6,49.6h-.1c0,.6-.1.4.4.6h0C61,49.7,61,49.7,60.6,49.6Z"/><path class="cls-1" d="M60,50.1h-.1v.4a.3.3,0,0,0,.1.2h.3C60.3,50.1,60.4,50.3,60,50.1Z"/><path class="cls-1" d="M60.9,46.6h0c.1-.5.1-.5-.3-.6h-.1C60.5,46.5,60.5,46.5,60.9,46.6Z"/><path class="cls-1" d="M60.9,48.8h0v-.4h0l-.4-.2C60.5,48.6,60.5,48.7,60.9,48.8Z"/><path class="cls-1" d="M60.6,50.3h-.1v.4h.4C61,50.5,61,50.4,60.6,50.3Z"/><path class="cls-1" d="M52,49h.2l.2-.2c-.1-.1,0-.2,0-.4H52Z"/><path class="cls-1" d="M52.9,48.5V48h-.2a.1.1,0,0,0-.1.1v.5h.3Z"/><path class="cls-1" d="M52.2,49.7a.2.2,0,0,0,.2-.2c-.1-.1,0-.3,0-.4H52v.5Z"/><path class="cls-1" d="M52.4,49.9H52v.5h.2a.2.2,0,0,0,.2-.2Z"/><path class="cls-1" d="M52.9,47.7h0v-.4h-.2a.1.1,0,0,0-.1.1v.5Z"/><path class="cls-1" d="M52.1,50.8H52v.4c.4,0,.4,0,.4-.3v-.3Z"/><path class="cls-1" d="M51.5,47.9v.6l.2-.2h.1v-.5Z"/><path class="cls-1" d="M51.5,47.6c.1,0,.2,0,.2-.1s.1,0,.1-.1V47h-.3Z"/><path class="cls-1" d="M51.8,49.4h-.3v.5l.2-.2c.1,0,.1,0,.1-.1Z"/><path class="cls-1" d="M52.4,47.5h-.3v.5c0-.1.1-.1.2-.1s.1-.1.1-.2Z"/><path class="cls-1" d="M52.1,47.3h.2a.1.1,0,0,0,.1-.1v-.5l-.3.2a.1.1,0,0,0-.1.1C52.1,47,52,47.2,52.1,47.3Z"/><path class="cls-1" d="M52.6,47h.3c0-.1.1-.3,0-.4h-.2c-.1,0-.1,0-.1.1Z"/><path class="cls-1" d="M51.8,51h-.3v.4h.2a.1.1,0,0,0,.1-.1Z"/><path class="cls-1" d="M52.9,49.6c0,.1-.1.1-.2.1s-.1.1-.1.2v.4h.3C52.9,49.9,53,49.8,52.9,49.6Z"/><path class="cls-1" d="M51.5,50.9h.3v-.5c-.3.1-.4.2-.3.5Z"/><path class="cls-1" d="M52.9,50.4h-.2c-.1.1-.1.1-.1.2v.4h.3Z"/><path class="cls-1" d="M52.7,49h-.1v.5h.3v-.5Z"/><path class="cls-1" d="M51.5,49.3h.2a.1.1,0,0,1,.1-.1v-.5c-.3.1-.4.2-.3.5Z"/><path class="cls-1" d="M155.6,21.7A14.3,14.3,0,0,1,164.1,35a14.2,14.2,0,0,1-2.3,8,13.3,13.3,0,0,1-6.2,5.2,24.3,24.3,0,0,1-9.7,1.9h-7.1V60.7H127.3V19.9h18.6A24.3,24.3,0,0,1,155.6,21.7Zm-5,17.7a5.4,5.4,0,0,0,1.8-4.4,5.4,5.4,0,0,0-1.8-4.4c-1.2-1.1-3-1.6-5.4-1.6h-6.4V41h6.4A8.3,8.3,0,0,0,150.6,39.4Z"/><path class="cls-1" d="M187.5,49.9h-6.3V60.7H169.7V19.9h18.6a23.5,23.5,0,0,1,9.6,1.8,13.9,13.9,0,0,1,6.3,5.3,14.1,14.1,0,0,1,2.2,8,13.8,13.8,0,0,1-2,7.7,15,15,0,0,1-5.9,5.2l8.8,12.8H194.9ZM193,30.6c-1.2-1.1-3-1.6-5.4-1.6h-6.4V41h6.4a8.3,8.3,0,0,0,5.4-1.6,5.4,5.4,0,0,0,1.8-4.4A5.4,5.4,0,0,0,193,30.6Z"/><path class="cls-1" d="M221.7,58.8a21.2,21.2,0,0,1-8.1-7.6,20.9,20.9,0,0,1-2.9-10.9,21.1,21.1,0,0,1,2.9-10.9,21.9,21.9,0,0,1,8.1-7.6,25.2,25.2,0,0,1,11.7-2.7A24.5,24.5,0,0,1,245,21.8a21.9,21.9,0,0,1,8.1,7.6,20.3,20.3,0,0,1,3,10.9,20.1,20.1,0,0,1-3,10.9,21.2,21.2,0,0,1-8.1,7.6,24.5,24.5,0,0,1-11.6,2.7A25.2,25.2,0,0,1,221.7,58.8ZM239,50.5a10.3,10.3,0,0,0,3.9-4.1,12.3,12.3,0,0,0,1.5-6.1,12.3,12.3,0,0,0-1.5-6.1,11,11,0,0,0-3.9-4.1,10.8,10.8,0,0,0-5.6-1.4,10.6,10.6,0,0,0-5.6,1.4,11.2,11.2,0,0,0-4,4.1,12.2,12.2,0,0,0-1.4,6.1,12.2,12.2,0,0,0,1.4,6.1,10.5,10.5,0,0,0,4,4.1,10.7,10.7,0,0,0,5.6,1.5A10.9,10.9,0,0,0,239,50.5Z"/><path class="cls-1" d="M290.4,21.7a15,15,0,0,1,6.3,5.3,14.1,14.1,0,0,1,2.2,8,13.7,13.7,0,0,1-8.5,13.2,23.5,23.5,0,0,1-9.6,1.9h-7.1V60.7H262.1V19.9h18.7A23.5,23.5,0,0,1,290.4,21.7Zm-5,17.7a5.4,5.4,0,0,0,1.8-4.4,5.4,5.4,0,0,0-1.8-4.4,7.6,7.6,0,0,0-5.3-1.6h-6.4V41h6.4A8.2,8.2,0,0,0,285.4,39.4Z"/><path class="cls-1" d="M350.3,21.7a15,15,0,0,1,6.3,5.3,14.1,14.1,0,0,1,2.2,8,13.7,13.7,0,0,1-8.5,13.2,23.5,23.5,0,0,1-9.6,1.9h-7.1V60.7H322V19.9h18.7A23.5,23.5,0,0,1,350.3,21.7Zm-4.9,17.7a5.4,5.4,0,0,0,1.8-4.4,5.4,5.4,0,0,0-1.8-4.4c-1.2-1.1-3-1.6-5.4-1.6h-6.4V41H340A8.3,8.3,0,0,0,345.4,39.4Z"/><path class="cls-1" d="M364.4,19.9H376V60.7H364.4Z"/><path class="cls-1" d="M399.9,45.9l-4.3,4.6V60.7H384.2V19.9h11.4v17l15.8-17h12.7L407.5,38,425,60.7H411.6Z"/><text class="cls-2" transform="translate(127.3 79.3)"><tspan class="cls-3">P</tspan><tspan class="cls-4" x="11.3" y="0">ROP </tspan><tspan class="cls-3" x="51.7" y="0">P</tspan><tspan x="63" y="0">IK G</tspan><tspan class="cls-5" x="96" y="0">L</tspan><tspan x="105.3" y="0">OBAL </tspan><tspan class="cls-3" x="156.1" y="0">P</tspan><tspan x="167.4" y="0">R</tspan><tspan class="cls-6" x="178.8" y="0">I</tspan><tspan class="cls-7" x="183.9" y="0">V</tspan><tspan class="cls-8" x="194.9" y="0">A</tspan><tspan x="206.3" y="0">TE LIMITED</tspan></text></svg>